<svg width="20" height="20" viewBox="0 0 20 20" fill="none" xmlns="http://www.w3.org/2000/svg">
<path d="M3.65002 17.7082C3.65002 16.2397 4.45726 14.8865 5.69734 13.8786C6.93882 12.8696 8.54615 12.2665 10 12.2665C11.4539 12.2665 13.0612 12.8696 14.3027 13.8786C15.5428 14.8865 16.35 16.2397 16.35 17.7082H3.65002ZM13.625 5.92412C13.6235 6.64059 13.4097 7.34056 13.0107 7.93561C12.6115 8.53081 12.0448 8.99432 11.3823 9.2676C10.7198 9.54088 9.99119 9.61165 9.28848 9.47098C8.58576 9.33031 7.94052 8.9845 7.43426 8.47725C6.92801 7.97001 6.58346 7.32408 6.44417 6.6211C6.30487 5.91811 6.37707 5.18961 6.65165 4.52764C6.92622 3.86567 7.39085 3.29994 7.98682 2.90194C8.58263 2.50404 9.28297 2.29163 9.99941 2.2915C10.9616 2.29355 11.8837 2.67716 12.5634 3.35819C13.243 4.0392 13.6248 4.96199 13.625 5.92412Z" stroke="#111111" stroke-width="1.25"/>
</svg>
