<svg width="30" height="30" viewBox="0 0 30 30" fill="none" xmlns="http://www.w3.org/2000/svg">
<path d="M7.5 14.1569C7.5 13.3394 7.5 12.9306 7.65224 12.5631C7.80448 12.1955 8.09351 11.9065 8.67157 11.3284L10.0784 9.92157C10.6565 9.34351 10.9455 9.05448 11.3131 8.90224C11.6806 8.75 12.0894 8.75 12.9069 8.75H17.0931C17.9106 8.75 18.3194 8.75 18.6869 8.90224C19.0545 9.05448 19.3435 9.34351 19.9216 9.92157L21.3284 11.3284C21.9065 11.9065 22.1955 12.1955 22.3478 12.5631C22.5 12.9306 22.5 13.3394 22.5 14.1569V21C22.5 22.8856 22.5 23.8284 21.9142 24.4142C21.3284 25 20.3856 25 18.5 25H11.5C9.61438 25 8.67157 25 8.08579 24.4142C7.5 23.8284 7.5 22.8856 7.5 21V14.1569Z" stroke="#484848"/>
<path d="M11.25 8.75L7.63868 6.34245C7.5547 6.28647 7.4453 6.28647 7.36133 6.34245L4.00373 8.58084C3.87247 8.66835 3.85408 8.85408 3.96563 8.96563L7.24112 12.2411C7.40688 12.4069 7.5 12.6317 7.5 12.8661V12.8661C7.5 13.3543 7.89573 13.75 8.38388 13.75H21.6161C22.1043 13.75 22.5 13.3543 22.5 12.8661V12.8661C22.5 12.6317 22.5931 12.4069 22.7589 12.2411L26.0344 8.96563C26.1459 8.85408 26.1275 8.66835 25.9963 8.58084L22.6387 6.34245C22.5547 6.28647 22.4453 6.28647 22.3613 6.34245L18.75 8.75" stroke="#484848" stroke-linecap="round"/>
</svg>
