<svg width="21" height="20" viewBox="0 0 21 20" fill="none" xmlns="http://www.w3.org/2000/svg">
<path d="M2.41663 14.9998C2.41663 13.7165 2.41663 13.0748 2.70579 12.6032C2.86746 12.339 3.08913 12.1173 3.35329 11.9557C3.82413 11.6665 4.46663 11.6665 5.74996 11.6665C7.03329 11.6665 7.67496 11.6665 8.14663 11.9557C8.41079 12.1173 8.63246 12.339 8.79413 12.6032C9.08329 13.074 9.08329 13.7165 9.08329 14.9998C9.08329 16.2832 9.08329 16.9248 8.79413 17.3973C8.63246 17.6607 8.41079 17.8823 8.14663 18.044C7.67579 18.3332 7.03329 18.3332 5.74996 18.3332C4.46663 18.3332 3.82496 18.3332 3.35329 18.044C3.08942 17.8826 2.86753 17.661 2.70579 17.3973C2.41663 16.9248 2.41663 16.2832 2.41663 14.9998ZM12.4166 14.9998C12.4166 13.7165 12.4166 13.0748 12.7058 12.6032C12.8675 12.339 13.0891 12.1173 13.3533 11.9557C13.8241 11.6665 14.4666 11.6665 15.75 11.6665C17.0333 11.6665 17.675 11.6665 18.1475 11.9557C18.4108 12.1173 18.6325 12.339 18.7941 12.6032C19.0833 13.074 19.0833 13.7165 19.0833 14.9998C19.0833 16.2832 19.0833 16.9248 18.7941 17.3973C18.6324 17.6607 18.4108 17.8823 18.1475 18.044C17.675 18.3332 17.0333 18.3332 15.75 18.3332C14.4666 18.3332 13.825 18.3332 13.3533 18.044C13.0894 17.8826 12.8675 17.661 12.7058 17.3973C12.4166 16.9248 12.4166 16.2832 12.4166 14.9998ZM2.41663 4.99984C2.41663 3.7165 2.41663 3.07484 2.70579 2.60317C2.86746 2.339 3.08913 2.11734 3.35329 1.95567C3.82413 1.6665 4.46663 1.6665 5.74996 1.6665C7.03329 1.6665 7.67496 1.6665 8.14663 1.95567C8.41079 2.11734 8.63246 2.339 8.79413 2.60317C9.08329 3.074 9.08329 3.7165 9.08329 4.99984C9.08329 6.28317 9.08329 6.92484 8.79413 7.3965C8.63246 7.66067 8.41079 7.88234 8.14663 8.044C7.67579 8.33317 7.03329 8.33317 5.74996 8.33317C4.46663 8.33317 3.82496 8.33317 3.35329 8.044C3.08932 7.88237 2.86742 7.66047 2.70579 7.3965C2.41663 6.92567 2.41663 6.28317 2.41663 4.99984ZM12.4166 4.99984C12.4166 3.7165 12.4166 3.07484 12.7058 2.60317C12.8675 2.339 13.0891 2.11734 13.3533 1.95567C13.8241 1.6665 14.4666 1.6665 15.75 1.6665C17.0333 1.6665 17.675 1.6665 18.1475 1.95567C18.4108 2.11734 18.6325 2.339 18.7941 2.60317C19.0833 3.074 19.0833 3.7165 19.0833 4.99984C19.0833 6.28317 19.0833 6.92484 18.7941 7.3965C18.6325 7.66067 18.4108 7.88234 18.1475 8.044C17.675 8.33317 17.0333 8.33317 15.75 8.33317C14.4666 8.33317 13.825 8.33317 13.3533 8.044C13.0893 7.88237 12.8674 7.66047 12.7058 7.3965C12.4166 6.92567 12.4166 6.28317 12.4166 4.99984Z" stroke="#111111" stroke-linecap="round" stroke-linejoin="round"/>
</svg>
