<svg width="24" height="24" viewBox="0 0 24 24" fill="none" xmlns="http://www.w3.org/2000/svg">
<path d="M14.7857 16.2857C14.9562 16.2857 15.1197 16.3534 15.2403 16.474C15.3608 16.5946 15.4286 16.7581 15.4286 16.9286C15.4286 17.0991 15.3608 17.2626 15.2403 17.3831C15.1197 17.5037 14.9562 17.5714 14.7857 17.5714H9.21427C9.04377 17.5714 8.88026 17.5037 8.7597 17.3831C8.63914 17.2626 8.57141 17.0991 8.57141 16.9286C8.57141 16.7581 8.63914 16.5946 8.7597 16.474C8.88026 16.3534 9.04377 16.2857 9.21427 16.2857H14.7857ZM18.2143 11.1429C18.3848 11.1429 18.5483 11.2106 18.6688 11.3311C18.7894 11.4517 18.8571 11.6152 18.8571 11.7857C18.8571 11.9562 18.7894 12.1197 18.6688 12.2403C18.5483 12.3608 18.3848 12.4286 18.2143 12.4286H5.7857C5.6152 12.4286 5.45169 12.3608 5.33113 12.2403C5.21057 12.1197 5.14284 11.9562 5.14284 11.7857C5.14284 11.6152 5.21057 11.4517 5.33113 11.3311C5.45169 11.2106 5.6152 11.1429 5.7857 11.1429H18.2143ZM20.7857 6C20.9562 6 21.1197 6.06773 21.2403 6.18829C21.3608 6.30885 21.4286 6.47236 21.4286 6.64286C21.4286 6.81335 21.3608 6.97687 21.2403 7.09743C21.1197 7.21798 20.9562 7.28571 20.7857 7.28571H3.21427C3.04377 7.28571 2.88026 7.21798 2.7597 7.09743C2.63914 6.97687 2.57141 6.81335 2.57141 6.64286C2.57141 6.47236 2.63914 6.30885 2.7597 6.18829C2.88026 6.06773 3.04377 6 3.21427 6H20.7857Z" fill="#484848"/>
</svg>
