<svg width="20" height="20" viewBox="0 0 20 20" fill="none" xmlns="http://www.w3.org/2000/svg">
<path fill-rule="evenodd" clip-rule="evenodd" d="M2.30783 6.80419C2 7.47348 2 8.23489 2 9.75773V14.5137C2 16.6285 2 17.686 2.65701 18.343C3.26687 18.9529 4.22175 18.9966 6.04712 18.9998V13.3922C6.04712 12.2205 6.99698 11.2707 8.1687 11.2707H11.5334C12.7052 11.2707 13.655 12.2205 13.655 13.3922V18.9998C15.4804 18.9966 16.4353 18.9529 17.0451 18.343C17.7021 17.686 17.7021 16.6285 17.7021 14.5137V9.75773C17.7021 8.23489 17.7021 7.47348 17.3943 6.80419C17.0865 6.13489 16.5084 5.63937 15.3521 4.64832L14.2306 3.68697C12.1407 1.89566 11.0958 1 9.85107 1C8.60637 1 7.56144 1.89566 5.47158 3.68697L4.35 4.64832C3.19377 5.63937 2.61566 6.13489 2.30783 6.80419ZM11.655 19V13.3922C11.655 13.3251 11.6006 13.2707 11.5334 13.2707H8.1687C8.10155 13.2707 8.04712 13.3251 8.04712 13.3922V19H11.655Z" />
</svg>
