<svg width="21" height="20" viewBox="0 0 21 20" fill="none" xmlns="http://www.w3.org/2000/svg">
<path d="M10.8737 9.375C10.8737 9.20924 10.8079 9.05027 10.6907 8.93306C10.5735 8.81585 10.4145 8.75 10.2487 8.75C10.083 8.75 9.92402 8.81585 9.80681 8.93306C9.6896 9.05027 9.62375 9.20924 9.62375 9.375V13.125C9.62375 13.2908 9.6896 13.4497 9.80681 13.5669C9.92402 13.6842 10.083 13.75 10.2487 13.75C10.4145 13.75 10.5735 13.6842 10.6907 13.5669C10.8079 13.4497 10.8737 13.2908 10.8737 13.125V9.375ZM11.1862 6.875C11.1862 7.12347 11.0875 7.36177 10.9118 7.53747C10.7361 7.71317 10.4978 7.81187 10.2494 7.81187C10.0009 7.81187 9.7626 7.71317 9.5869 7.53747C9.41121 7.36177 9.3125 7.12347 9.3125 6.875C9.3125 6.62669 9.41114 6.38855 9.58672 6.21297C9.7623 6.03739 10.0004 5.93875 10.2487 5.93875C10.4971 5.93875 10.7352 6.03739 10.9108 6.21297C11.0864 6.38855 11.1862 6.62669 11.1862 6.875ZM10.25 1.25C7.92936 1.25 5.70376 2.17187 4.06282 3.81282C2.42187 5.45376 1.5 7.67936 1.5 10C1.5 12.3206 2.42187 14.5462 4.06282 16.1872C5.70376 17.8281 7.92936 18.75 10.25 18.75C12.5706 18.75 14.7962 17.8281 16.4372 16.1872C18.0781 14.5462 19 12.3206 19 10C19 7.67936 18.0781 5.45376 16.4372 3.81282C14.7962 2.17187 12.5706 1.25 10.25 1.25ZM2.75 10C2.75 9.01509 2.94399 8.03982 3.3209 7.12987C3.69781 6.21993 4.25026 5.39314 4.9467 4.6967C5.64314 4.00026 6.46993 3.44781 7.37987 3.0709C8.28982 2.69399 9.26509 2.5 10.25 2.5C11.2349 2.5 12.2102 2.69399 13.1201 3.0709C14.0301 3.44781 14.8569 4.00026 15.5533 4.6967C16.2497 5.39314 16.8022 6.21993 17.1791 7.12987C17.556 8.03982 17.75 9.01509 17.75 10C17.75 11.9891 16.9598 13.8968 15.5533 15.3033C14.1468 16.7098 12.2391 17.5 10.25 17.5C8.26088 17.5 6.35322 16.7098 4.9467 15.3033C3.54018 13.8968 2.75 11.9891 2.75 10Z" fill="#111111"/>
</svg>
