<svg viewBox="0 0 159 50" fill="none" xmlns="http://www.w3.org/2000/svg">
<path d="M58.3955 25.027C58.0338 25.027 57.7575 24.9239 57.5666 24.7177C57.3758 24.5127 57.2804 24.224 57.2804 23.8515V15.5699C57.2804 15.1975 57.3758 14.911 57.5666 14.7105C57.7575 14.51 58.0338 14.4098 58.3955 14.4098C59.1295 14.4098 59.4973 14.7976 59.4973 15.5699V19.0503H59.5256L63.3304 14.9685C63.4924 14.7919 63.6621 14.657 63.8397 14.5636C64.015 14.4713 64.2175 14.4246 64.4472 14.4235C64.7712 14.4235 65.0097 14.5117 65.1628 14.6883C65.3149 14.8648 65.3814 15.0727 65.3626 15.3119C65.3437 15.5523 65.2389 15.7704 65.048 15.9663L61.686 19.4894L65.2477 23.3816C65.4674 23.6265 65.5795 23.876 65.5839 24.13C65.5884 24.3851 65.5074 24.5981 65.3409 24.769C65.1745 24.9399 64.9282 25.027 64.6036 25.027C64.3273 25.027 64.106 24.9683 63.9395 24.851C63.772 24.7337 63.5884 24.5623 63.3886 24.3367L59.5256 20.166H59.4973V23.8515C59.4973 24.224 59.4041 24.5127 59.2177 24.7177C59.0324 24.9239 58.7583 25.027 58.3955 25.027Z" fill="black"/>
<path fill-rule="evenodd" clip-rule="evenodd" d="M71.4126 25.056C70.4206 25.056 69.5507 24.8333 68.8028 24.388C68.0539 23.9426 67.4719 23.3207 67.0569 22.5222C66.6419 21.7248 66.4344 20.788 66.4344 19.7115C66.4344 18.634 66.6419 17.6965 67.0569 16.8992C67.4719 16.1007 68.0511 15.4816 68.7945 15.042C69.539 14.6011 70.4117 14.3807 71.4126 14.3807C72.4145 14.3807 73.2894 14.6011 74.0373 15.042C74.7863 15.4816 75.3682 16.1007 75.7832 16.8992C76.1982 17.6965 76.4057 18.6289 76.4057 19.6962C76.4057 20.7737 76.1982 21.7135 75.7832 22.5154C75.3682 23.3184 74.7863 23.9426 74.0373 24.388C73.2894 24.8333 72.4145 25.056 71.4126 25.056ZM71.4126 23.1185C72.2525 23.1185 72.9083 22.8172 73.3799 22.2146C73.8514 21.6132 74.0872 20.7789 74.0872 19.7115C74.0872 18.634 73.8536 17.7991 73.3865 17.2067C72.9194 16.6156 72.2614 16.32 71.4126 16.32C70.5826 16.32 69.9318 16.6156 69.4603 17.2067C68.9887 17.7991 68.7529 18.634 68.7529 19.7115C68.7529 20.7789 68.9887 21.6132 69.4603 22.2146C69.9329 22.8161 70.5837 23.1185 71.4126 23.1185Z" fill="black"/>
<path fill-rule="evenodd" clip-rule="evenodd" d="M78.165 25.027C77.7644 25.027 77.4781 24.8897 77.3061 24.6152C77.1342 24.3418 77.1391 24.0041 77.3211 23.602L80.9827 15.3649C81.1348 15.0323 81.3156 14.7897 81.5253 14.637C81.735 14.4855 81.9786 14.4098 82.256 14.4098C82.5323 14.4098 82.7753 14.485 82.985 14.637C83.1947 14.7885 83.3711 15.0311 83.5143 15.3649L87.2042 23.602C87.3862 24.0132 87.3934 24.3532 87.2258 24.6221C87.0594 24.892 86.7903 25.027 86.4186 25.027C86.0935 25.027 85.8427 24.9484 85.6663 24.7912C85.4899 24.6352 85.3351 24.3908 85.2019 24.0582L84.6011 22.6486H79.8959L79.3084 24.0582C79.1653 24.4011 79.0127 24.6483 78.8507 24.7998C78.6887 24.9512 78.4601 25.027 78.165 25.027ZM82.2277 16.9641L80.6399 20.8717H83.8721L82.256 16.9641H82.2277Z" fill="black"/>
<path d="M89.7807 24.8955C89.4078 24.8955 89.1266 24.7946 88.9368 24.593C88.746 24.3926 88.6505 24.1061 88.6505 23.7336V15.6725C88.6505 15.3011 88.746 15.0147 88.9368 14.813C89.1266 14.6126 89.4028 14.5123 89.7657 14.5123C90.5002 14.5123 90.8675 14.899 90.8675 15.6725V22.9716H94.7006C95.3397 22.9716 95.6592 23.2894 95.6592 23.925C95.6592 24.5708 95.3397 24.8937 94.7006 24.8937L89.7807 24.8955Z" fill="black"/>
<path fill-rule="evenodd" clip-rule="evenodd" d="M96.9608 25.027C96.5602 25.027 96.274 24.8897 96.102 24.6152C95.9311 24.3418 95.9361 24.0041 96.1169 23.602L99.7786 15.3649C99.9317 15.0323 100.113 14.7897 100.323 14.637C100.533 14.4855 100.776 14.4098 101.052 14.4098C101.328 14.4098 101.571 14.485 101.781 14.637C101.991 14.7885 102.167 15.0311 102.31 15.3649L106.002 23.602C106.183 24.0132 106.189 24.3532 106.022 24.6221C105.855 24.892 105.586 25.027 105.214 25.027C104.89 25.027 104.64 24.9484 104.464 24.7912C104.287 24.6352 104.132 24.3908 103.998 24.0582L103.397 22.6486H98.6917L98.1059 24.0582C97.9627 24.4011 97.8096 24.6483 97.6465 24.7998C97.4845 24.9512 97.2559 25.027 96.9608 25.027ZM101.024 16.9641L99.4357 20.8717H102.668L101.052 16.9641H101.024Z" fill="black"/>
<path fill-rule="evenodd" clip-rule="evenodd" d="M108.605 24.8955C107.832 24.8955 107.446 24.4985 107.446 23.7046V15.7306C107.446 14.9378 107.832 14.5414 108.605 14.5414H111.394C113.111 14.5414 114.441 14.9896 115.385 15.886C116.329 16.7813 116.801 18.0565 116.802 19.7116C116.801 21.3655 116.329 22.643 115.385 23.544C114.441 24.4438 113.111 24.8938 111.394 24.8938H108.605V24.8955ZM109.663 23.0314H111.264C113.41 23.0314 114.483 21.9248 114.483 19.7116C114.483 17.5098 113.41 16.4089 111.264 16.4089H109.663V23.0314Z" fill="black"/>
<path fill-rule="evenodd" clip-rule="evenodd" d="M119.633 25.027C119.27 25.027 118.994 24.9239 118.804 24.7178C118.613 24.5127 118.518 24.224 118.518 23.8515V15.7015C118.518 14.9281 118.894 14.5414 119.648 14.5414H123.123C124.248 14.5414 125.116 14.8205 125.726 15.3786C126.336 15.9367 126.642 16.7153 126.642 17.7142C126.642 18.4877 126.449 19.1312 126.062 19.645C125.676 20.1587 125.126 20.5089 124.411 20.6957C124.916 20.8518 125.331 21.2282 125.655 21.8251L126.542 23.5149C126.743 23.8874 126.781 24.2325 126.657 24.5503C126.532 24.8681 126.232 25.027 125.756 25.027C125.441 25.027 125.184 24.9587 124.984 24.822C124.783 24.6842 124.611 24.4734 124.468 24.1898L123.095 21.591C122.952 21.3165 122.775 21.1303 122.566 21.0323C122.356 20.9344 122.108 20.8854 121.822 20.8854H120.735V23.8515C120.735 24.224 120.642 24.5127 120.455 24.7178C120.27 24.9228 119.996 25.027 119.633 25.027ZM120.735 19.2417H122.724C123.915 19.2417 124.511 18.7519 124.511 17.7723C124.511 16.803 123.915 16.3183 122.724 16.3183H120.735V19.2417Z" fill="black"/>
<path d="M129.632 24.8955C128.86 24.8955 128.474 24.4985 128.474 23.7046V15.7306C128.473 14.9378 128.859 14.5414 129.632 14.5414H134.624C135.205 14.5414 135.497 14.8353 135.498 15.423C135.497 16.0199 135.205 16.3183 134.624 16.3183H130.591V18.7411H134.294C134.886 18.7411 135.182 19.0401 135.182 19.6381C135.182 20.235 134.886 20.5334 134.294 20.5334H130.591V23.1185H134.624C135.205 23.1185 135.497 23.4118 135.498 23.9984C135.497 24.5965 135.205 24.8955 134.624 24.8955H129.632Z" fill="black"/>
<path fill-rule="evenodd" clip-rule="evenodd" d="M137.242 25.027C136.841 25.027 136.555 24.8897 136.383 24.6152C136.212 24.3418 136.217 24.0041 136.398 23.602L140.06 15.3649C140.213 15.0323 140.394 14.7897 140.604 14.637C140.814 14.4855 141.057 14.4098 141.333 14.4098C141.609 14.4098 141.852 14.485 142.062 14.637C142.272 14.7885 142.448 15.0311 142.591 15.3649L146.283 23.602C146.464 24.0132 146.471 24.3532 146.305 24.6221C146.137 24.892 145.867 25.027 145.496 25.027C145.172 25.027 144.921 24.9484 144.745 24.7912C144.569 24.6352 144.414 24.3908 144.281 24.0582L143.678 22.6486H138.973L138.387 24.0582C138.244 24.4011 138.091 24.6483 137.928 24.7998C137.766 24.9512 137.537 25.027 137.242 25.027ZM141.305 16.9641L139.717 20.8717H142.949L141.333 16.9641H141.305Z" fill="black"/>
<path d="M148.758 25.027C148.433 25.027 148.184 24.9342 148.012 24.7485C147.841 24.5617 147.756 24.302 147.756 23.9694V15.4674C147.756 15.1246 147.846 14.8626 148.027 14.6815C148.208 14.5003 148.465 14.4098 148.799 14.4098C149.086 14.4098 149.313 14.4685 149.48 14.5858C149.647 14.7031 149.801 14.8939 149.945 15.1582L153.005 20.9007L156.066 15.1582C156.209 14.8939 156.365 14.7031 156.532 14.5858C156.699 14.4685 156.92 14.4098 157.196 14.4098C157.52 14.4098 157.77 14.5003 157.947 14.6815C158.123 14.8626 158.212 15.1246 158.213 15.4674V23.9694C158.212 24.6745 157.878 25.027 157.211 25.027C156.534 25.027 156.196 24.6745 156.196 23.9694V18.5805L153.849 22.9118C153.735 23.0986 153.613 23.2381 153.485 23.3304C153.356 23.4238 153.187 23.4705 152.977 23.4705C152.767 23.4705 152.595 23.4238 152.461 23.3304C152.328 23.2381 152.209 23.0986 152.105 22.9118L149.758 18.6249V23.9694C149.758 24.6745 149.425 25.027 148.758 25.027Z" fill="black"/>
<path d="M57.575 37.3852C57.332 37.3852 57.2105 37.2548 57.2105 36.994V31.3146C57.2105 31.0424 57.3437 30.9062 57.61 30.9062H61.9706C62.2369 30.9062 62.3701 31.0424 62.3701 31.3146V36.994C62.3701 37.2548 62.2491 37.3852 62.0072 37.3852C61.7587 37.3852 61.6344 37.2548 61.6344 36.994V31.5521H57.9378V36.994C57.9378 37.2548 57.8169 37.3852 57.575 37.3852Z" fill="#545454"/>
<path fill-rule="evenodd" clip-rule="evenodd" d="M65.6406 37.404C65.2212 37.404 64.8578 37.3094 64.5504 37.1204C64.2431 36.9324 64.0051 36.667 63.8364 36.3242C63.6689 35.9824 63.5851 35.5775 63.5851 35.1093C63.5851 34.6423 63.6689 34.2374 63.8364 33.8945C64.0051 33.5528 64.2431 33.2874 64.5504 33.0983C64.8578 32.9104 65.2212 32.8164 65.6406 32.8164C66.0545 32.8164 66.4167 32.9104 66.7274 33.0983C67.037 33.2874 67.2761 33.5528 67.4448 33.8945C67.6134 34.2374 67.6978 34.6423 67.6978 35.1093C67.6978 35.5775 67.6134 35.9824 67.4448 36.3242C67.2761 36.667 67.037 36.9324 66.7274 37.1204C66.4167 37.3094 66.0545 37.4034 65.6406 37.4023V37.404ZM65.6406 36.8128C66.0423 36.8128 66.3646 36.6659 66.6076 36.372C66.8495 36.0781 66.9704 35.6578 66.9704 35.111C66.9704 34.5592 66.8489 34.1372 66.6076 33.8467C66.3646 33.5551 66.0423 33.4093 65.6406 33.4093C65.2334 33.4093 64.9099 33.5551 64.6703 33.8467C64.4306 34.1383 64.3108 34.5597 64.3108 35.111C64.3108 35.6578 64.4306 36.0781 64.6703 36.372C64.9099 36.6659 65.2334 36.8128 65.6406 36.8128Z" fill="#545454"/>
<path d="M70.6936 37.404C70.262 37.404 69.8897 37.3083 69.5768 37.1169C69.2639 36.9256 69.0231 36.6556 68.8545 36.3071C68.6858 35.9574 68.6015 35.549 68.6015 35.082C68.6015 34.3781 68.7879 33.8245 69.1607 33.4212C69.5324 33.018 70.0434 32.8164 70.6936 32.8164C70.9067 32.8164 71.1286 32.8511 71.3594 32.9206C71.5891 32.9912 71.7988 33.1052 71.9885 33.2623C72.0884 33.3352 72.1311 33.4264 72.1167 33.5357C72.1022 33.6451 72.0523 33.7271 71.9669 33.7818C71.8803 33.8364 71.781 33.8245 71.669 33.7459C71.5092 33.624 71.3511 33.5386 71.1946 33.4896C71.0382 33.4417 70.8861 33.4178 70.7386 33.4178C70.2892 33.4178 69.9435 33.5619 69.7017 33.8501C69.4587 34.1383 69.3372 34.5523 69.3372 35.0923C69.3372 35.6196 69.4587 36.0365 69.7017 36.3429C69.9435 36.6494 70.2892 36.8026 70.7386 36.8026C70.8861 36.8026 71.0382 36.7781 71.1946 36.7291C71.3511 36.6812 71.5092 36.5964 71.669 36.4745C71.781 36.3959 71.8787 36.3857 71.9619 36.4438C72.0451 36.5018 72.0911 36.585 72.1 36.6932C72.1089 36.8026 72.0656 36.8908 71.9702 36.958C71.7816 37.1152 71.5746 37.2291 71.3494 37.2998C71.1247 37.3681 70.9067 37.4023 70.6936 37.4023V37.404Z" fill="#545454"/>
<path d="M74.3103 37.3852C74.0684 37.3852 73.9475 37.2576 73.9475 37.0025V33.4913H72.6526C72.4285 33.4913 72.3164 33.3911 72.3164 33.1906C72.3164 32.9958 72.4285 32.8984 72.6526 32.8984H75.968C76.1866 32.8984 76.2959 32.9958 76.2959 33.1906C76.2959 33.3899 76.1866 33.4902 75.968 33.4913H74.6648V37.0025C74.6648 37.2576 74.5467 37.3852 74.3103 37.3852Z" fill="#545454"/>
<path d="M77.3512 31.834C77.0371 31.834 76.8801 31.6825 76.8801 31.3795C76.8801 31.0822 77.0371 30.9336 77.3512 30.9336C77.6641 30.9336 77.8205 31.0822 77.8205 31.3795C77.8205 31.6825 77.6641 31.834 77.3512 31.834ZM77.3512 37.3664C77.1148 37.3664 76.9966 37.2332 76.9966 36.9666V33.2436C76.9966 32.9828 77.1148 32.8523 77.3512 32.8523C77.593 32.8523 77.714 32.9828 77.714 33.2436V36.9666C77.714 37.2332 77.593 37.3664 77.3512 37.3664Z" fill="#545454"/>
<path d="M82.4391 37.3852C82.2028 37.3852 82.0846 37.2576 82.0846 37.0025V33.4913H80.347V34.0552C80.347 34.6862 80.3071 35.217 80.2272 35.6476C80.1473 36.0781 80.0169 36.4301 79.836 36.7035C79.6563 36.9757 79.4155 37.1876 79.1137 37.3391C79.0138 37.3824 78.924 37.3886 78.8441 37.3579C78.7642 37.3283 78.7048 37.277 78.666 37.2041C78.6283 37.1312 78.6183 37.052 78.636 36.9666C78.6538 36.8823 78.7126 36.8094 78.8124 36.7479C79.0371 36.6146 79.2119 36.4369 79.3367 36.2165C79.4599 35.9944 79.547 35.7074 79.598 35.3554C79.648 35.0046 79.6729 34.562 79.6729 34.0278V33.317C79.6729 33.0391 79.8089 32.8996 80.0807 32.8984H82.3942C82.666 32.8984 82.802 33.038 82.802 33.317V37.0025C82.802 37.2576 82.681 37.3852 82.4391 37.3852Z" fill="#545454"/>
<path fill-rule="evenodd" clip-rule="evenodd" d="M84.5929 37.322C84.3443 37.322 84.22 37.1944 84.22 36.9393V33.2077C84.22 32.9594 84.3415 32.8352 84.5845 32.8352C84.8209 32.8352 84.939 32.9599 84.939 33.2077V34.4737H86.2422C86.7915 34.4737 87.2081 34.5962 87.4922 34.8411C87.7751 35.0871 87.9166 35.4345 87.9166 35.8833C87.9166 36.3264 87.7707 36.6767 87.4789 36.9341C87.186 37.1927 86.7737 37.322 86.2422 37.322H84.5929ZM84.939 36.794H86.1707C86.5013 36.7929 86.7599 36.72 86.9463 36.5753C87.1327 36.4295 87.2259 36.2017 87.2259 35.8919C87.2259 35.5889 87.1344 35.3645 86.9513 35.2187C86.7682 35.0729 86.508 35 86.1707 35H84.939V36.794Z" fill="#545454"/>
<path d="M89.3446 37.3852C89.1016 37.3852 88.9801 37.2576 88.9801 37.0025V33.2077C88.9801 32.9594 89.1016 32.8352 89.3446 32.8352C89.581 32.8352 89.6991 32.9594 89.6991 33.2077V34.7369H92.0476V33.2077C92.0476 32.9594 92.1658 32.8352 92.4021 32.8352C92.6451 32.8352 92.7666 32.9594 92.7666 33.2077V37.0025C92.7655 37.2576 92.644 37.3852 92.4021 37.3852C92.1658 37.3852 92.0476 37.2576 92.0476 37.0025V35.3383H89.6991V37.0025C89.6991 37.2576 89.581 37.3852 89.3446 37.3852Z" fill="#545454"/>
<path fill-rule="evenodd" clip-rule="evenodd" d="M95.5494 37.404C95.2532 37.404 94.9885 37.3447 94.7555 37.2263C94.5225 37.1078 94.3378 36.9455 94.2013 36.7393C94.0659 36.5332 93.9982 36.3025 93.9982 36.0474C93.9982 35.7261 94.0792 35.4716 94.2412 35.2836C94.4032 35.0957 94.6723 34.9607 95.0485 34.8787C95.4235 34.7967 95.9361 34.7557 96.5863 34.7557H96.8693V34.472C96.8693 34.0961 96.7938 33.825 96.6429 33.6587C96.4931 33.4913 96.2524 33.4076 95.9206 33.4076C95.7142 33.4076 95.5062 33.4349 95.2964 33.4896C95.0867 33.5443 94.8693 33.6325 94.644 33.7544C94.5442 33.8091 94.4604 33.8194 94.3927 33.7852C94.3239 33.7521 94.2762 33.6975 94.2496 33.6212C94.2229 33.546 94.2229 33.4674 94.2496 33.3854C94.2762 33.3034 94.3339 33.2413 94.4226 33.1991C94.6767 33.0647 94.9325 32.9673 95.1899 32.907C95.4473 32.8466 95.6909 32.8164 95.9206 32.8164C96.4765 32.8164 96.8887 32.9559 97.1572 33.235C97.4269 33.5141 97.5617 33.9481 97.5617 34.537V37.0025C97.5617 37.2576 97.4524 37.3852 97.2338 37.3852C97.003 37.3852 96.8876 37.2576 96.8876 37.0025V36.5565C96.7755 36.8174 96.6024 37.0235 96.3683 37.175C96.1353 37.3277 95.8623 37.4034 95.5494 37.4023V37.404ZM95.6643 36.8504C96.0193 36.8504 96.3089 36.7245 96.5331 36.4728C96.7572 36.2211 96.8693 35.901 96.8693 35.5126V35.2392H96.5947C96.1164 35.2392 95.7397 35.262 95.4645 35.3075C95.1905 35.3531 94.9985 35.4317 94.8887 35.5433C94.7788 35.6561 94.7239 35.8093 94.7239 36.0029C94.7239 36.2524 94.8082 36.4557 94.9769 36.6129C95.1455 36.7712 95.3747 36.8504 95.6643 36.8504Z" fill="#545454"/>
<path fill-rule="evenodd" clip-rule="evenodd" d="M103.066 37.404C102.428 37.404 101.922 37.1882 101.55 36.7565C101.178 36.3259 100.992 35.7011 100.992 34.8821V34.2004C100.992 33.3199 101.164 32.6507 101.51 32.1928C101.856 31.7349 102.374 31.4091 103.066 31.2155L104.361 30.843C104.585 30.7758 104.721 30.8453 104.768 31.0515C104.822 31.2633 104.73 31.4029 104.494 31.4701L103.119 31.8511C102.641 31.9855 102.282 32.2241 102.042 32.567C101.802 32.9087 101.683 33.3285 101.683 33.8262V33.845C101.819 33.5477 102.021 33.3119 102.285 33.1394C102.551 32.9662 102.865 32.8797 103.226 32.8797C103.597 32.8797 103.925 32.9708 104.209 33.153C104.493 33.3353 104.713 33.595 104.87 33.9322C105.026 34.2682 105.105 34.664 105.105 35.1196C105.105 35.581 105.02 35.9825 104.852 36.3242C104.683 36.667 104.447 36.9324 104.143 37.1204C103.839 37.3095 103.48 37.4034 103.066 37.4023V37.404ZM103.039 36.8128C103.459 36.8128 103.786 36.6688 104.023 36.3806C104.259 36.0935 104.378 35.6795 104.379 35.1384C104.378 34.611 104.259 34.2015 104.023 33.9099C103.786 33.6195 103.461 33.4743 103.047 33.4743C102.635 33.4743 102.31 33.6166 102.074 33.9014C101.837 34.1873 101.719 34.5786 101.719 35.0752C101.719 35.6459 101.834 36.0781 102.064 36.372C102.295 36.6659 102.62 36.8128 103.039 36.8128Z" fill="#545454"/>
<path d="M106.629 31.834C106.316 31.834 106.16 31.6825 106.16 31.3795C106.16 31.0822 106.316 30.9336 106.629 30.9336C106.942 30.9336 107.099 31.0822 107.099 31.3795C107.099 31.6825 106.942 31.834 106.629 31.834ZM106.629 37.3664C106.393 37.3664 106.275 37.2332 106.275 36.9666V33.2436C106.275 32.9828 106.393 32.8523 106.629 32.8523C106.872 32.8523 106.994 32.9828 106.994 33.2436V36.9666C106.993 37.2332 106.871 37.3664 106.629 37.3664Z" fill="#545454"/>
<path d="M111.717 37.3852C111.481 37.3852 111.363 37.2576 111.363 37.0025V33.4913H109.625V34.0552C109.625 34.6862 109.585 35.217 109.505 35.6476C109.425 36.0781 109.296 36.4301 109.116 36.7035C108.935 36.9757 108.694 37.1876 108.393 37.3391C108.292 37.3824 108.202 37.3886 108.122 37.3579C108.042 37.3283 107.983 37.277 107.946 37.2041C107.907 37.1312 107.896 37.052 107.914 36.9666C107.932 36.8823 107.991 36.8094 108.092 36.7479C108.316 36.6146 108.491 36.4375 108.615 36.2165C108.739 35.9944 108.826 35.7074 108.876 35.3554C108.926 35.0046 108.951 34.562 108.951 34.0278V33.317C108.951 33.0391 109.087 32.8996 109.359 32.8984H111.674C111.946 32.8984 112.082 33.038 112.082 33.317V37.0025C112.082 37.2576 111.96 37.3852 111.717 37.3852Z" fill="#545454"/>
<path d="M113.828 37.3852C113.609 37.3852 113.5 37.2519 113.5 36.9854V33.1991C113.5 32.9565 113.609 32.8352 113.828 32.8352C114.046 32.8352 114.155 32.9565 114.155 33.1991V36.3207L116.514 33.071C116.561 33.0049 116.615 32.9491 116.677 32.9035C116.739 32.858 116.823 32.8352 116.93 32.8352C117.149 32.8352 117.258 32.9656 117.258 33.2265V37.0213C117.258 37.2639 117.149 37.3852 116.93 37.3852C116.711 37.3852 116.602 37.2639 116.602 37.0213V33.8997L114.235 37.1494C114.193 37.2098 114.141 37.2639 114.079 37.3117C114.017 37.3613 113.934 37.3852 113.828 37.3852Z" fill="#545454"/>
<path d="M120.104 37.404C119.796 37.404 119.496 37.3675 119.207 37.2946C118.917 37.2217 118.669 37.1152 118.463 36.9751C118.344 36.9022 118.284 36.81 118.281 36.6983C118.278 36.5856 118.318 36.499 118.401 36.4386C118.483 36.3783 118.593 36.3874 118.729 36.466C118.918 36.5878 119.132 36.679 119.372 36.7393C119.611 36.7991 119.849 36.8299 120.086 36.8299C120.517 36.8299 120.825 36.765 121.008 36.6334C121.191 36.5036 121.282 36.3173 121.282 36.0747C121.282 35.8378 121.204 35.6589 121.048 35.5382C120.89 35.4163 120.67 35.3554 120.387 35.3554H119.615C119.408 35.3554 119.305 35.2614 119.305 35.0735C119.305 34.8912 119.408 34.8001 119.615 34.8001H120.297C120.552 34.8001 120.755 34.7409 120.905 34.6224C121.055 34.5039 121.131 34.3359 121.131 34.1184C121.131 33.894 121.05 33.7163 120.888 33.5853C120.725 33.4554 120.457 33.3905 120.086 33.3905C119.848 33.3905 119.625 33.4161 119.415 33.4674C119.205 33.5186 119.003 33.6024 118.809 33.7185C118.667 33.7971 118.554 33.8057 118.471 33.7442C118.389 33.6838 118.349 33.5989 118.351 33.4896C118.355 33.3814 118.416 33.2937 118.534 33.2265C118.995 32.9531 119.541 32.8164 120.174 32.8164C120.723 32.8164 121.134 32.9258 121.406 33.1445C121.677 33.3632 121.813 33.6696 121.813 34.0637C121.813 34.2881 121.75 34.4868 121.624 34.66C121.496 34.8331 121.323 34.959 121.104 35.0376C121.371 35.1036 121.58 35.2295 121.733 35.4152C121.888 35.5997 121.965 35.8287 121.965 36.102C121.965 36.4961 121.808 36.8117 121.495 37.0486C121.181 37.2855 120.717 37.4034 120.102 37.4023L120.104 37.404Z" fill="#545454"/>
<path d="M123.444 37.3852C123.203 37.3852 123.082 37.2576 123.082 37.0025V33.2077C123.082 32.9594 123.203 32.8352 123.444 32.8352C123.681 32.8352 123.799 32.9594 123.801 33.2077V34.7369H126.149V33.2077C126.149 32.9594 126.267 32.8352 126.504 32.8352C126.745 32.8352 126.866 32.9594 126.866 33.2077V37.0025C126.866 37.2576 126.745 37.3852 126.504 37.3852C126.267 37.3852 126.149 37.2576 126.149 37.0025V35.3383H123.799V37.0025C123.799 37.2576 123.681 37.3852 123.444 37.3852Z" fill="#545454"/>
<path fill-rule="evenodd" clip-rule="evenodd" d="M129.651 37.404C129.355 37.404 129.09 37.3447 128.857 37.2263C128.623 37.1078 128.438 36.9455 128.303 36.7393C128.166 36.5332 128.098 36.3025 128.098 36.0474C128.098 35.7261 128.18 35.4716 128.343 35.2836C128.505 35.0957 128.774 34.9607 129.15 34.8787C129.525 34.7967 130.038 34.7557 130.688 34.7557H130.971V34.472C130.971 34.0961 130.895 33.825 130.744 33.6587C130.593 33.4913 130.353 33.4076 130.022 33.4076C129.816 33.4076 129.608 33.4349 129.398 33.4896C129.188 33.5443 128.971 33.6325 128.745 33.7544C128.646 33.8091 128.561 33.8194 128.492 33.7852C128.425 33.7521 128.378 33.6975 128.351 33.6212C128.324 33.546 128.324 33.4674 128.351 33.3854C128.378 33.3034 128.435 33.2413 128.524 33.1991C128.778 33.0647 129.034 32.9673 129.291 32.907C129.549 32.8466 129.792 32.8164 130.022 32.8164C130.578 32.8164 130.99 32.9559 131.259 33.235C131.527 33.5141 131.662 33.9481 131.663 34.537V37.0025C131.663 37.2576 131.554 37.3852 131.335 37.3852C131.104 37.3852 130.989 37.2576 130.989 37.0025V36.5565C130.876 36.8174 130.703 37.0235 130.47 37.175C130.237 37.3277 129.964 37.4034 129.651 37.4023V37.404ZM129.766 36.8504C130.12 36.8504 130.409 36.7245 130.635 36.4728C130.859 36.2211 130.971 35.901 130.971 35.5126V35.2392H130.696C130.218 35.2392 129.841 35.262 129.566 35.3075C129.291 35.3531 129.099 35.4317 128.99 35.5433C128.88 35.6561 128.825 35.8093 128.825 36.0029C128.825 36.2524 128.91 36.4557 129.078 36.6129C129.247 36.7712 129.476 36.8504 129.766 36.8504Z" fill="#545454"/>
<path d="M33.533 25.3618C39.3517 23.0808 38.5012 29.2539 38.5012 29.2539C38.5012 29.2539 41.3772 31.5366 39.0238 32.8779C37.7822 33.5493 35.2989 33.2145 34.7097 31.47C34.4484 30.7302 34.4484 30.262 34.3835 29.9254C33.7943 27.9127 32.5527 28.7841 30.5255 28.7174" fill="#B5CFDD"/>
<path d="M37.5858 33.2145C37.1281 33.2145 36.6704 33.1478 36.2127 32.9462C35.4287 32.678 34.9061 32.1397 34.6448 31.47C34.5133 31.0001 34.4484 30.5969 34.3835 30.3286C34.3835 30.1937 34.3169 30.0604 34.3169 29.9254C33.9258 28.5158 33.1402 28.5842 32.0301 28.7174C31.5724 28.7858 31.0498 28.7858 30.5255 28.7858C30.5255 28.7858 30.4606 28.7858 30.4606 28.7174C30.4606 28.7174 30.4606 28.6508 30.5255 28.6508C31.0498 28.6508 31.5724 28.6508 32.0301 28.5842C33.1402 28.4492 33.9907 28.3825 34.3835 29.8588C34.4484 29.9938 34.4484 30.127 34.4484 30.262C34.5133 30.5303 34.5133 30.9318 34.7097 31.4016C34.9061 32.0731 35.4936 32.543 36.2143 32.8779C37.1281 33.2144 38.2399 33.2145 38.9589 32.8112C39.5481 32.4763 39.8743 32.0731 39.8743 31.6032C39.9392 30.4619 38.5012 29.2539 38.4363 29.2539C38.4363 29.2539 38.4363 29.2539 38.4363 29.1873C38.4363 29.1873 38.7625 26.5031 37.391 25.3618C36.5405 24.692 35.2323 24.6236 33.4681 25.2951H33.4032V25.2285C35.1674 24.557 36.5405 24.557 37.391 25.2951C38.7625 26.4365 38.5012 28.8524 38.4363 29.1207C38.6327 29.2539 39.9392 30.3953 39.8743 31.5366C39.8094 32.0731 39.5481 32.4763 38.894 32.8112C38.6327 33.0795 38.1084 33.2145 37.5858 33.2145Z" fill="#262B5F"/>
<path d="M39.0238 32.8113C38.0435 33.3478 36.3442 33.2812 35.3638 32.3414C35.1025 32.0732 34.8412 31.8049 34.7747 31.4017C34.5133 30.6636 34.5133 30.1937 34.4484 29.8588C33.8592 27.8461 32.6176 28.7859 30.5921 28.6509L33.5979 25.2286C35.2324 24.6237 36.3442 24.6237 37.1281 24.9603C39.0904 25.9 38.6327 29.0541 38.6327 29.0541C38.6327 29.0541 41.3772 31.4701 39.0238 32.8113Z" fill="#CEC9C5"/>
<path fill-rule="evenodd" clip-rule="evenodd" d="M37.5209 33.2145C36.7369 33.2145 35.8864 32.9463 35.2323 32.408C34.971 32.1398 34.7097 31.8049 34.5782 31.47C34.5133 31.0002 34.4484 30.5969 34.3835 30.3287C34.3835 30.1937 34.3169 30.0604 34.3169 29.9255C33.9258 28.5159 33.1402 28.5842 32.0301 28.7175C31.5724 28.7858 31.0498 28.7858 30.5255 28.7858C30.5255 28.7858 30.5255 28.7858 30.4606 28.7858C30.4606 28.7858 30.4606 28.7858 30.4606 28.7175L33.4681 25.2952C34.971 24.692 36.1477 24.6237 36.9982 25.0269C38.8291 25.8983 38.5661 28.8525 38.5012 29.1873C38.6976 29.3223 40.0058 30.462 39.9392 31.6033C39.8743 32.1398 39.613 32.543 38.9605 32.8779C39.5481 32.543 39.8743 32.1398 39.8743 31.6699C39.9392 30.5303 38.5012 29.3223 38.4363 29.3223C38.4363 29.3223 38.4363 29.3223 38.4363 29.254C38.4363 29.254 38.8291 26.0999 36.9333 25.1602C36.0828 24.7587 34.9061 24.8253 33.4681 25.4302L30.5255 28.7841C31.0498 28.7841 31.5075 28.7841 31.9635 28.7175C32.2914 28.5842 32.5527 28.5842 32.814 28.5842C33.533 28.5842 34.0556 28.8525 34.3835 29.9255C34.4484 30.0604 34.4484 30.1937 34.4484 30.3287C34.5133 30.5969 34.5133 31.0002 34.7097 31.47C34.8412 31.8049 35.0359 32.1398 35.2989 32.408C36.2792 33.3478 38.0435 33.3478 38.9589 32.8796C38.631 33.0795 38.1084 33.2145 37.5209 33.2145ZM38.9589 32.8779C38.9589 32.8791 38.9589 32.8796 38.9589 32.8796C38.9589 32.8796 38.9589 32.8791 38.9589 32.8779C38.96 32.8779 38.9605 32.8779 38.9605 32.8779C38.9605 32.8779 38.96 32.8779 38.9589 32.8779Z" fill="#262B5F"/>
<path d="M39.613 32.3414C39.613 30.462 38.2399 29.7239 38.2399 29.7239C38.2399 29.7239 38.6976 26.5032 36.7369 25.6301C35.9513 25.2952 34.8412 25.2286 33.2068 25.9L30.657 28.7858C30.5915 28.7858 30.526 28.7858 30.4606 28.7858L33.4681 25.3618C35.1025 24.7587 36.2143 24.7587 36.9982 25.0936C38.9589 26.0333 38.5012 29.1874 38.5012 29.1874C38.5012 29.1874 40.7897 31.0002 39.613 32.3414Z" fill="white"/>
<path d="M37.5209 33.4161C37.0632 33.4161 36.5406 33.3478 36.0829 33.1461C35.2324 32.8113 34.6448 32.2748 34.4484 31.5366C34.252 31.0668 34.252 30.6636 34.1871 30.3953C34.1871 30.2603 34.1222 30.1271 34.1222 29.9921C33.7943 28.7175 33.2068 28.7841 32.0301 28.9191C31.5724 28.9857 31.0498 28.9857 30.4606 28.9857C30.3291 28.9857 30.1993 28.8524 30.1993 28.7175C30.1993 28.5842 30.3308 28.4492 30.4606 28.4492C30.9832 28.4492 31.5058 28.4492 31.8986 28.3826C33.0753 28.2476 34.0556 28.181 34.5133 29.7922C34.5799 29.9254 34.5799 30.0604 34.5799 30.2603C34.6448 30.5303 34.6448 30.8652 34.8412 31.335C35.036 31.9382 35.5602 32.408 36.2127 32.6763C37.0632 33.0129 38.1084 32.9462 38.7625 32.6096C39.2851 32.3414 39.5481 31.9382 39.5481 31.5366C39.613 30.5303 38.2399 29.3889 38.2399 29.3889C38.175 29.3223 38.1084 29.254 38.175 29.1873C38.175 29.1873 38.5012 26.6364 37.193 25.5634C36.4085 24.8925 35.1669 24.8925 33.4681 25.5634C33.3366 25.63 33.2068 25.5634 33.1402 25.4284C33.0753 25.2951 33.1402 25.1602 33.2717 25.0935C35.1025 24.3554 36.5406 24.4221 37.456 25.1602C38.7625 26.2349 38.6327 28.5158 38.6327 29.0523C39.0238 29.3889 40.1356 30.4619 40.0707 31.5366C40.0041 32.1398 39.6779 32.6096 39.0238 33.0129C38.6976 33.2811 38.1084 33.4161 37.5209 33.4161Z" fill="#202020"/>
<path d="M38.0435 29.9255C38.1084 29.7922 38.1084 29.6572 38.175 29.5223C38.175 29.4556 38.175 29.389 38.2399 29.3224C38.2399 29.254 38.2399 29.1874 38.3048 29.1207C38.3714 29.0541 38.4363 28.9858 38.5012 29.0541C38.5661 29.0541 38.5661 29.1207 38.5661 29.1874C38.5661 29.2557 38.5661 29.3224 38.5012 29.389C38.5012 29.4556 38.4363 29.524 38.3714 29.5906C38.3714 29.7922 38.2399 29.8589 38.0435 29.9255C38.1084 29.9938 38.0435 29.9938 38.0435 29.9255Z" fill="#202020"/>
<path d="M34.8412 31.2018C34.8412 31.2001 32.6176 33.6161 26.799 33.2145C23.2039 32.9463 19.3475 29.9921 19.3475 29.9921L26.2114 23.2825C26.2114 23.2825 27.2567 22.6776 28.6963 22.2078C29.088 22.0734 29.5452 21.9395 30.0678 21.8063C31.0498 21.6046 32.0301 21.4697 33.0104 21.6046C33.5979 21.6713 34.1871 21.9395 34.7097 22.2761C36.2127 23.4158 36.7369 24.8253 36.7369 26.1683C36.7369 28.7842 34.8412 31.2001 34.8412 31.2001V31.2018Z" fill="#C9C6C0"/>
<path fill-rule="evenodd" clip-rule="evenodd" d="M28.1071 33.2811C27.7144 33.2811 27.2567 33.2811 26.799 33.2145C23.2688 33.0129 19.3475 30.0604 19.3475 29.9938L26.2114 23.2824C26.2114 23.2824 27.3232 22.6776 28.6947 22.2077C29.1529 22.0733 29.6106 21.9395 30.0678 21.8062C30.8412 21.6194 31.5507 21.53 32.1965 21.538C31.574 21.5311 30.9 21.62 30.1344 21.8062C29.6767 21.9395 29.219 22.0745 28.8262 22.2077C27.4531 22.6776 26.4078 23.2158 26.3412 23.2824L19.4124 29.9938C19.8052 30.3287 23.4652 32.9462 26.799 33.1479C32.4878 33.5494 34.7746 31.2018 34.8412 31.1334C34.9061 31.0668 36.7369 28.6508 36.6704 26.1016C36.6704 24.5571 35.9514 23.2824 34.6448 22.2761C34.4651 22.1445 34.277 22.0232 34.0739 21.9207C34.3053 22.0181 34.5183 22.136 34.7097 22.2761C36.0179 23.2824 36.7369 24.6237 36.8019 26.1683C36.8668 28.7858 34.971 31.2684 34.971 31.2684C34.8412 31.2684 32.8789 33.2811 28.1071 33.2811ZM33.0104 21.6046C33.0104 21.6046 33.011 21.6046 33.0121 21.6046C33.011 21.6046 33.0104 21.6046 33.0104 21.6046C32.9383 21.5932 32.8662 21.5835 32.794 21.5756C32.8673 21.5835 32.9394 21.5932 33.0104 21.6046ZM32.1965 21.538C32.4018 21.5402 32.601 21.5528 32.794 21.5756C32.5993 21.5516 32.4012 21.5397 32.1965 21.538ZM33.0121 21.6046C33.3915 21.6832 33.7511 21.784 34.0739 21.9207C33.7577 21.7618 33.4099 21.6456 33.0121 21.6046Z" fill="#262B5F"/>
<path d="M36.6704 26.1683C35.6901 27.4429 33.7294 27.7777 32.0301 26.973C30.0678 26.0333 29.0875 23.8189 29.8731 22.0745C29.938 22.0061 29.938 21.8728 30.0029 21.8062C31.6373 21.403 33.4032 21.3363 34.5799 22.2744C36.1478 23.4157 36.6704 24.8253 36.6704 26.1683Z" fill="white"/>
<path fill-rule="evenodd" clip-rule="evenodd" d="M28.172 33.4828C27.7143 33.4828 27.3232 33.4828 26.7989 33.4161C23.2039 33.2145 19.3475 30.3287 19.216 30.1937C19.1511 30.1271 19.1511 30.0605 19.1511 29.9921C19.1511 29.9255 19.1511 29.8589 19.216 29.7922L26.0799 23.0809C26.0799 23.0809 26.1465 23.0809 26.1465 23.0142C26.4078 22.8792 31.9635 19.8585 34.8412 22.0062C36.0828 22.9459 36.8018 24.0872 36.9333 25.4968C37.3245 28.3826 35.1674 31.2001 35.1025 31.2684C34.9061 31.4701 33.0104 33.4828 28.172 33.4828ZM19.7386 29.9921C20.6541 30.597 23.858 32.7447 26.7989 33.0129C32.2265 33.4161 34.5133 31.2001 34.6448 31.0668C34.7746 30.8652 36.7369 28.2476 36.409 25.6301C36.2792 24.4221 35.6251 23.3491 34.5133 22.476C31.9635 20.5299 26.7989 23.2825 26.4078 23.4824L19.7386 29.9921Z" fill="#202020"/>
<path d="M11.4367 30.1937C11.4367 30.1937 5.03055 32.6097 5.03055 32.0732C5.03055 31.5367 10.0636 29.0541 10.0636 29.0541" fill="#DE8E58"/>
<path d="M5.16203 32.1398C5.09546 32.1398 5.03055 32.1398 5.03055 32.1398L4.96564 32.0732C4.96564 31.5367 9.4761 29.254 9.99871 29.0541H10.0636V29.1207C8.03808 30.1271 5.03055 31.7383 5.09546 32.0732C5.09546 32.0732 5.16203 32.0732 5.22694 32.0732C5.94596 32.0732 9.2797 30.9318 11.5033 30.0604H11.5682V30.1271C10.9141 30.3953 6.14235 32.1398 5.16203 32.1398Z" fill="#262B5F"/>
<path d="M5.03055 32.0732C5.03055 31.8715 5.48825 31.6033 6.07578 31.2001C7.58037 30.3287 10.0636 29.0524 10.0636 29.0524L10.9141 29.7238L11.4367 30.1271C11.4367 30.1271 5.03055 32.543 5.03055 32.0732Z" fill="#202020"/>
<path d="M11.4367 30.1271C11.4367 30.1271 5.03055 32.543 5.03055 32.0065C5.03055 31.8715 5.42334 31.6033 5.94596 31.2001C7.0561 31.0002 9.4761 30.1271 10.8492 29.5906L11.4367 30.1271Z" fill="#202020"/>
<path d="M5.16205 32.3414C5.03056 32.3414 4.96565 32.3414 4.89908 32.2748C4.83417 32.2082 4.76926 32.1398 4.76926 32.0066C4.76926 31.8049 4.76926 31.5367 7.38399 30.0605C8.62562 29.389 9.86891 28.7175 9.93382 28.7175C10.0636 28.6509 10.1951 28.7175 10.26 28.8525C10.3249 28.9858 10.26 29.1207 10.1302 29.1874C8.2994 30.1271 6.27219 31.2001 5.55318 31.7383C6.5335 31.5367 9.08332 30.6636 11.3718 29.7922C11.5017 29.7239 11.6331 29.7922 11.6981 29.9255C11.763 30.0605 11.6981 30.1937 11.5682 30.2621C11.5682 30.2621 10.0636 30.8652 8.49413 31.3351C6.33876 32.2082 5.48827 32.3414 5.16205 32.3414Z" fill="#202020"/>
<path d="M42.3592 32.0731C42.3592 32.0731 47.2608 38.3812 46.7382 38.4479C46.2156 38.5162 41.77 33.8176 41.77 33.8176" fill="#202020"/>
<path d="M46.6733 38.6495C46.4769 38.6495 45.9543 38.3813 43.8621 36.3019C42.6854 35.1606 41.5736 33.9526 41.5736 33.9526C41.5087 33.886 41.5087 33.6843 41.5736 33.6177C41.6385 33.5494 41.8349 33.5494 41.9015 33.6177C43.5343 35.3622 45.4316 37.2416 46.2805 37.9114C45.6929 36.905 43.8621 34.4225 42.0962 32.2081C42.0313 32.0731 42.0313 31.9399 42.1628 31.8715C42.2926 31.8049 42.4241 31.8049 42.489 31.9399C42.489 31.9399 43.6657 33.4161 44.7775 34.8923C47.131 38.0464 47.0644 38.248 46.9995 38.4496C46.9995 38.5163 46.8697 38.6495 46.8031 38.6495C46.7382 38.6495 46.7382 38.6495 46.6733 38.6495Z" fill="#202020"/>
<path d="M46.2156 31.6033C46.2805 31.67 46.2805 31.8049 46.2156 31.8049C29.7416 40.9989 9.2797 30.2604 5.74956 26.973C5.55316 26.8381 5.48825 26.5698 5.48825 26.3016C5.48825 25.7651 5.88104 25.4285 6.33708 25.4285C6.46857 25.4285 6.66497 25.4968 6.79479 25.5634C12.2872 29.389 29.7416 36.2336 46.2805 27.5762C45.8893 27.7778 45.6264 28.5842 45.6264 29.5906C45.628 30.597 45.8893 31.4017 46.2156 31.6033Z" fill="#202020"/>
<path fill-rule="evenodd" clip-rule="evenodd" d="M31.5724 35.6971C27.6494 35.6971 24.0544 35.0939 21.0469 34.2875C13.7253 32.408 7.58039 28.9857 5.55318 27.1746C5.35678 26.973 5.22696 26.6381 5.22696 26.3015C5.22696 25.6984 5.68466 25.1602 6.3371 25.1602C6.5335 25.1613 6.72989 25.2285 6.92629 25.3618C9.67251 27.3079 15.3597 29.9254 22.42 31.0001C28.3035 31.9381 37.2596 32.0065 46.2156 27.3762C46.3471 27.3079 46.4769 27.3762 46.5418 27.5095C46.6084 27.6445 46.5418 27.7777 46.4769 27.8461C46.2156 27.9793 45.9543 28.7174 45.9543 29.6572C45.9543 30.5969 46.2156 31.2684 46.4769 31.47C46.6084 31.5366 46.6084 31.6699 46.6084 31.8049C46.6084 31.9399 46.5418 32.0731 46.412 32.1398C41.4438 34.7573 36.2792 35.6971 31.5724 35.6971ZM6.27219 25.6984C6.01088 25.6984 5.68466 25.9 5.68466 26.3015C5.68466 26.5031 5.74957 26.6381 5.8794 26.7714C7.4489 28.181 13.2027 31.8049 21.1783 33.8176C27.6494 35.4954 37.2596 36.5018 45.9543 31.6699C45.6264 31.2684 45.3651 30.5303 45.3651 29.5905C45.3651 29.0529 45.4305 28.583 45.5615 28.181C41.9015 29.9921 37.9786 31.1334 33.8592 31.6699C30.1344 32.1398 26.2114 32.0731 22.2885 31.47C15.1633 30.3953 9.4112 27.7111 6.60007 25.765C6.53349 25.765 6.40367 25.6984 6.27219 25.6984Z" fill="#202020"/>
<path d="M47.2608 29.6572C47.2608 30.7986 46.8697 31.7383 46.412 31.7383C45.9543 31.7383 45.5615 30.7986 45.5615 29.6572C45.5615 28.6509 45.8228 27.8461 46.2156 27.6445C46.2156 27.6445 46.2156 27.6445 46.2805 27.6445C46.347 27.6445 46.347 27.6445 46.412 27.6445C46.9346 27.5762 47.2608 28.5159 47.2608 29.6572Z" fill="#202020"/>
<path fill-rule="evenodd" clip-rule="evenodd" d="M46.412 31.9382C45.693 31.9382 45.3651 30.7985 45.3651 29.5905C45.3651 28.5158 45.693 27.6445 46.1507 27.3762H46.2156C46.2805 27.3079 46.3471 27.3079 46.4769 27.3079C47.1959 27.3079 47.5221 28.4492 47.5221 29.6572C47.5221 30.7985 47.131 31.9382 46.412 31.9382ZM46.412 27.8461C46.1507 27.9793 45.8894 28.7175 45.8894 29.6572C45.8894 30.7319 46.2156 31.47 46.4769 31.47C46.7382 31.47 47.0661 30.7319 47.0661 29.6572C46.9995 28.5158 46.6733 27.7777 46.412 27.8461Z" fill="#202020"/>
<path d="M5.48851 26.6381C5.48851 26.5698 5.42169 26.5032 5.42169 26.4365C5.48851 26.5032 5.48851 26.5698 5.48851 26.6381Z" fill="#262B5F"/>
<path d="M5.68501 26.9063C5.61819 26.838 5.61819 26.838 5.61819 26.7714C5.55304 26.838 5.61819 26.838 5.68501 26.9063Z" fill="#262B5F"/>
<path d="M9.80234 29.6571C9.60594 29.5222 9.41121 29.4555 9.21481 29.3223C9.41121 29.4555 9.60594 29.5239 9.80234 29.6571Z" fill="#262B5F"/>
<path d="M8.95349 29.1874C8.69052 29.0524 8.49579 28.9192 8.23282 28.7842C8.42922 28.9192 8.69052 29.0541 8.95349 29.1874Z" fill="#262B5F"/>
<path d="M10.5213 30.0605C10.3915 29.9922 10.1951 29.9255 10.0636 29.8589C10.1951 29.8589 10.3249 29.9255 10.5213 30.0605Z" fill="#262B5F"/>
<path d="M7.44888 28.2477C6.86136 27.8444 6.33708 27.5096 6.01086 27.1747C6.33875 27.5096 6.86136 27.8462 7.44888 28.2477Z" fill="#262B5F"/>
<path d="M5.61807 26.3682C5.61807 26.3682 5.68489 26.4365 5.75004 26.4365C5.68489 26.4365 5.61807 26.3682 5.61807 26.3682Z" fill="#262B5F"/>
<path d="M5.74958 26.973C5.68467 26.9063 5.68467 26.973 5.74958 26.973C5.68467 26.9063 5.68467 26.973 5.74958 26.973C5.81449 26.973 5.81449 27.0396 5.88107 27.108C5.81449 27.0396 5.74958 26.973 5.74958 26.973Z" fill="#262B5F"/>
<path d="M21.7659 34.2209C21.5695 34.1543 21.3731 34.0859 21.1118 34.0859C21.3082 34.1543 21.5695 34.1543 21.7659 34.2209Z" fill="#262B5F"/>
<path d="M24.0544 34.7574C23.7931 34.6908 23.5318 34.6908 23.3354 34.6241C23.5301 34.6241 23.7931 34.6908 24.0544 34.7574Z" fill="#262B5F"/>
<path d="M24.0544 34.7573C24.2508 34.824 24.5121 34.824 24.7085 34.8923C24.5121 34.824 24.2508 34.7573 24.0544 34.7573Z" fill="#262B5F"/>
<path d="M27.453 35.2272C26.7989 35.1606 26.2114 35.0923 25.5573 34.959C26.2114 35.094 26.8655 35.1606 27.453 35.2272Z" fill="#262B5F"/>
<path d="M12.9413 31.2018C12.0908 30.7985 11.2403 30.3953 10.5213 30.0604C11.2403 30.3953 12.0908 30.7985 12.9413 31.2001V31.2018Z" fill="#262B5F"/>
<path d="M30.1993 35.4288C29.5452 35.4288 28.8911 35.3622 28.3036 35.2938C28.9577 35.3622 29.5452 35.4288 30.1993 35.4288Z" fill="#262B5F"/>
<path d="M27.4531 35.2272C27.7144 35.2272 27.9757 35.2938 28.1721 35.2938C27.9757 35.2938 27.7144 35.2938 27.4531 35.2272Z" fill="#262B5F"/>
<path d="M31.0497 35.4955C30.7879 35.4955 30.526 35.4955 30.2642 35.4955C30.526 35.4283 30.7879 35.4283 31.0497 35.4955Z" fill="#262B5F"/>
<path d="M46.2156 31.8716C41.3123 34.6241 36.0828 35.5638 31.0481 35.4955C36.0828 35.5638 41.3123 34.5558 46.2156 31.8716C46.2805 31.8716 46.2805 31.8049 46.2805 31.8049C46.2156 31.8049 46.2156 31.8716 46.2156 31.8716Z" fill="#262B5F"/>
<path d="M22.8777 34.4891C22.5498 34.4225 22.2236 34.3558 21.9623 34.2875C22.2236 34.3558 22.5498 34.4225 22.8777 34.4891Z" fill="#262B5F"/>
<path d="M14.902 32.0732C14.7056 32.0066 14.5741 31.9382 14.3794 31.8716C14.5741 31.9382 14.7705 32.0066 14.902 32.0732Z" fill="#262B5F"/>
<path d="M19.6088 33.6843C19.0862 33.5494 18.6285 33.4161 18.1059 33.2145C18.6285 33.3477 19.0862 33.5494 19.6088 33.6843Z" fill="#262B5F"/>
<path d="M13.9871 31.6699C13.9219 31.6699 13.9219 31.6699 13.8551 31.6033C13.9219 31.6699 13.9871 31.6699 13.9871 31.6699Z" fill="#262B5F"/>
<path d="M13.3993 31.4017C13.3993 31.4017 13.3325 31.4017 13.3325 31.3351C13.3993 31.4017 13.3993 31.4017 13.3993 31.4017Z" fill="#262B5F"/>
<path d="M15.9472 32.4764C15.7519 32.4092 15.5561 32.342 15.3597 32.2748C15.5561 32.2748 15.7519 32.342 15.9472 32.4764Z" fill="#262B5F"/>
<path d="M17.9095 33.1479C17.778 33.0796 17.5816 33.0796 17.4518 33.0129C17.6482 33.0129 17.778 33.0796 17.9095 33.1479Z" fill="#262B5F"/>
<path d="M17.1905 32.8779C17.059 32.8113 16.9941 32.8113 16.8626 32.7446C16.9941 32.8113 17.059 32.8779 17.1905 32.8779Z" fill="#262B5F"/>
<path d="M16.6013 32.6779C16.4715 32.6096 16.34 32.6096 16.2085 32.543C16.34 32.6096 16.4715 32.6096 16.6013 32.6779Z" fill="#262B5F"/>
<path d="M0.649933 30.3954C0.649933 30.3954 2.08795 29.1208 3.46107 29.389C4.83418 29.6573 5.6181 31.5367 5.6181 31.5367C5.6181 31.5367 4.18008 32.878 2.80697 32.5431C1.43552 32.2748 0.649933 30.3954 0.649933 30.3954Z" fill="#8DC158"/>
<path fill-rule="evenodd" clip-rule="evenodd" d="M3.19976 32.6096C3.06827 32.6096 2.93845 32.6096 2.74205 32.543C1.36894 32.2081 0.585022 30.3953 0.520111 30.3953V30.3286C0.520111 30.3286 2.02304 28.9857 3.39615 29.2539C4.76927 29.5905 5.55319 31.4016 5.6181 31.4016V31.47C5.6181 31.5366 4.44138 32.6096 3.19976 32.6096ZM2.80696 32.4763C4.05025 32.7446 5.42336 31.6033 5.6181 31.4683C5.48828 31.2684 4.76927 29.6572 3.52598 29.3889C2.28435 29.1207 0.911239 30.2603 0.714842 30.3953C0.781417 30.6635 1.56534 32.2081 2.80696 32.4763Z" fill="#262B5F"/>
<path d="M3.46106 32.543C3.26467 32.543 3.00336 32.543 2.80696 32.4764C1.43552 32.1398 0.649933 30.3287 0.649933 30.3287C0.649933 30.3287 2.08795 28.9857 3.46106 29.3223C3.52598 29.3223 3.59255 29.389 3.65746 29.389C2.48075 29.5239 1.43552 30.462 1.43552 30.462C1.43552 30.462 2.15453 32.1398 3.46106 32.543Z" fill="white"/>
<path fill-rule="evenodd" clip-rule="evenodd" d="M3.19974 32.8113C3.06826 32.8113 2.87353 32.8113 2.74204 32.7447C1.23911 32.4081 0.453522 30.5303 0.388612 30.462C0.323701 30.3953 0.388612 30.2621 0.453523 30.1937C0.520098 30.1271 2.02303 28.7859 3.52763 29.1207C5.03056 29.4556 5.81448 31.3351 5.88105 31.4017C5.94597 31.4701 5.88105 31.6033 5.81448 31.67C5.74957 31.7383 4.50794 32.8113 3.19974 32.8113ZM2.87353 32.2748C3.85384 32.4764 4.96565 31.7383 5.35678 31.4017C5.16204 30.9318 4.44137 29.7922 3.46105 29.5906C2.48073 29.389 1.36893 30.1271 0.977802 30.462C1.1742 30.9318 1.82663 32.0732 2.87353 32.2748Z" fill="#202020"/>
<path d="M2.80697 30.8652L5.55319 31.2684C5.68467 31.2684 5.74958 31.4017 5.74958 31.5367C5.74958 31.6699 5.6181 31.7383 5.48828 31.7383L2.87354 30.9318C2.80697 30.9318 2.74206 30.9318 2.80697 30.8652C2.80697 30.8652 2.80697 30.7986 2.80697 30.8652Z" fill="#202020"/>
<path d="M8.16792 36.3686C8.16792 36.3686 6.7299 35.0256 6.9263 33.5494C7.12269 32.0731 8.82202 31.1334 8.82202 31.1334C8.82202 31.1334 10.26 32.543 10.0636 33.9526C9.86725 35.4288 8.16792 36.3686 8.16792 36.3686Z" fill="#8DC158"/>
<path fill-rule="evenodd" clip-rule="evenodd" d="M8.16791 36.4352C8.10245 36.4352 8.10245 36.4352 8.16791 36.4352C8.103 36.4352 6.72989 35.0256 6.86138 33.5494C7.05611 32.0731 8.7571 31.1334 8.82201 31.1334H8.88692C8.88692 31.1334 10.3249 32.543 10.1285 34.0192C9.93382 35.4288 8.16791 36.4352 8.16791 36.4352ZM8.82201 31.2018C8.62561 31.335 7.12268 32.2748 6.9912 33.5494C6.7948 34.8257 8.03809 36.1003 8.16791 36.3019C8.36431 36.1669 9.86724 35.2272 9.99873 33.9526C10.1951 32.678 8.9535 31.4017 8.82201 31.2018Z" fill="#262B5F"/>
<path d="M8.16791 36.3686C8.16791 36.3686 6.72989 35.0256 6.86137 33.5494C6.92684 33.3478 6.9923 33.1468 7.05777 32.9463C7.0561 34.2209 8.29939 35.4289 8.29939 35.4289C8.29939 35.4289 9.60593 34.6908 10.0636 33.6178C10.0636 33.751 10.0636 33.8177 10.0636 33.9527C9.86724 35.4289 8.16791 36.3686 8.16791 36.3686Z" fill="white"/>
<path fill-rule="evenodd" clip-rule="evenodd" d="M8.16792 36.6369C8.10301 36.6369 8.0381 36.6369 7.97152 36.5702C7.90661 36.5019 6.46859 35.094 6.66499 33.5494C6.86139 32.0066 8.62563 31.0002 8.69054 31.0002C8.75711 30.9319 8.88693 30.9319 8.95351 31.0668C9.01842 31.1335 10.4564 32.5431 10.26 34.0859C10.0636 35.6305 8.29941 36.6369 8.2345 36.6369H8.16792ZM8.75545 31.4701C8.36265 31.7383 7.25251 32.5431 7.12103 33.5494C6.99121 34.6241 7.84004 35.6305 8.16626 36.032C8.55905 35.7638 9.67085 34.959 9.80068 33.9527C9.93216 32.878 9.08166 31.8716 8.75545 31.4701Z" fill="#202020"/>
<path d="M8.36432 34.0859L8.56072 31.2684C8.56072 31.1334 8.69054 31.0002 8.82202 31.0668C8.95351 31.0668 9.08333 31.2018 9.01842 31.335C9.01842 31.335 9.01842 31.335 9.01842 31.4017L8.49581 34.1542C8.49581 34.1542 8.42923 34.1542 8.36432 34.0859C8.42923 34.1542 8.36432 34.0859 8.36432 34.0859Z" fill="#202020"/>
<path d="M50.2683 33.886C50.2683 33.886 50.1385 35.8988 48.8952 36.6369C47.6536 37.375 45.8893 36.5702 45.8893 36.5702C45.8893 36.5702 46.0192 34.5558 47.2608 33.8177C48.4375 33.0796 50.2683 33.886 50.2683 33.886Z" fill="#8DC158"/>
<path fill-rule="evenodd" clip-rule="evenodd" d="M47.5887 36.9717C46.6733 36.9717 45.8228 36.5701 45.8228 36.5701C45.8228 36.5701 45.8228 36.5701 45.8228 36.5018C45.8228 36.5018 46.0192 34.4891 47.2608 33.751C48.5041 33.0128 50.2683 33.8176 50.3332 33.8176C50.3332 33.8176 50.3332 33.8176 50.3332 33.8859C50.3332 33.8859 50.1385 35.8987 48.8952 36.6368C48.5041 36.905 48.0464 36.9717 47.5887 36.9717ZM45.8894 36.5701C46.0841 36.6368 47.7185 37.3082 48.8303 36.6368C49.9421 35.9653 50.2034 34.2208 50.2034 33.9526C50.007 33.8859 48.3726 33.2145 47.2608 33.8859C46.1507 34.5557 45.8894 36.3019 45.8894 36.5701Z" fill="#262B5F"/>
<path d="M50.007 34.0192C50.007 34.0192 49.8772 36.032 48.6339 36.7718C48.5041 36.8384 48.4392 36.8384 48.3077 36.9051C49.3529 36.1003 49.4844 34.3558 49.4844 34.3558C49.4844 34.3558 47.9815 33.6844 46.8047 34.1542C46.8697 34.0876 46.9995 34.0192 47.0661 33.9526C48.3077 33.2145 50.007 34.0192 50.007 34.0192Z" fill="white"/>
<path fill-rule="evenodd" clip-rule="evenodd" d="M47.5887 37.2417C46.6084 37.24 45.7579 36.8385 45.6929 36.8385C45.6264 36.7701 45.5615 36.7035 45.5615 36.5702C45.5615 36.5019 45.7579 34.4225 47.0661 33.6161C48.1113 33.0129 49.4844 33.4162 50.0719 33.6161C50.3332 33.6844 50.4647 33.9527 50.3998 34.2209C50.3332 34.8241 49.9421 36.2336 48.8952 36.9051C48.569 37.1067 48.0464 37.24 47.5887 37.24V37.2417ZM46.0841 36.437C46.5418 36.6386 47.7851 36.9735 48.7005 36.437C49.5493 35.9005 49.8755 34.6259 49.9421 34.0876V34.021C49.4844 33.8194 48.2428 33.4845 47.3274 34.021C46.4769 34.6259 46.1507 35.9005 46.0841 36.437Z" fill="#202020"/>
<path d="M48.3726 35.1606L46.0857 36.7718C45.9542 36.8385 45.8228 36.8385 45.7578 36.7035C45.6929 36.5702 45.6929 36.4352 45.8228 36.3686L48.3077 35.094H48.3726C48.3726 35.094 48.3726 35.094 48.3726 35.1606Z" fill="#202020"/>
<path d="M24.1193 30.1271C24.2508 35.094 22.0921 38.113 20.0665 36.7701C18.3672 35.6971 20.1964 29.9255 20.1964 28.5159" fill="#C9C6C0"/>
<path d="M21.0469 37.1066C20.7206 37.1066 20.3928 36.9717 20.0665 36.7701C18.8249 35.9653 19.4124 32.7446 19.8701 30.3953C20.0016 29.5905 20.1964 28.8524 20.1964 28.4492C20.1964 28.4492 20.1964 28.3826 20.2629 28.3826C20.2629 28.3826 20.3279 28.3826 20.3279 28.4492C20.3279 28.8524 20.1964 29.5905 20.0016 30.3953C19.6088 32.6096 18.9547 35.8987 20.1315 36.7034C20.7206 37.1066 21.3082 37.1066 21.8974 36.7701C23.2688 35.9653 24.1842 33.2811 24.1193 30.127C24.1193 30.127 24.1193 30.0604 24.1842 30.0604C24.1842 30.0604 24.2508 30.0604 24.2508 30.127C24.3157 33.3477 23.4003 36.0336 22.0272 36.8384C21.6344 37.04 21.3731 37.1066 21.0469 37.1066Z" fill="#262B5F"/>
<path d="M20.4577 28.5158C20.4577 28.7174 20.4577 28.919 20.3928 29.1207C20.3928 29.3223 20.3279 29.5239 20.3279 29.6571C20.263 30.0604 20.1964 30.3953 20.1315 30.7301C20.0005 31.4694 19.8696 32.2081 19.7387 32.9462C19.6738 33.6843 19.6089 34.4224 19.6089 35.0939C19.6089 35.4288 19.6743 35.7642 19.8053 36.1003C19.8702 36.2335 19.9351 36.3685 20.0666 36.4351L20.1315 36.5018H20.1964C20.1964 36.5018 20.263 36.5701 20.3279 36.5701C20.3928 36.6368 20.4577 36.6368 20.5243 36.7034C20.6541 36.7717 20.8505 36.8384 20.982 36.8384C21.0469 36.8384 21.1118 36.8384 21.2433 36.8384C21.3082 36.8384 21.3731 36.8384 21.4397 36.7717C21.7659 36.7034 22.0272 36.5035 22.2236 36.2335C22.4843 35.9658 22.6802 35.6976 22.8111 35.4288C23.0075 35.0939 23.139 34.8256 23.2688 34.4224C23.4003 34.0875 23.4652 33.7509 23.5967 33.4161C23.6616 33.0795 23.7265 32.6779 23.7914 32.3414C23.9229 31.6032 23.9878 30.8651 24.0527 30.127C24.0527 30.0604 24.1193 30.0604 24.1193 30.0604C24.1842 30.0604 24.1842 30.127 24.1842 30.127C24.2491 30.8651 24.2491 31.6032 24.1842 32.408V32.6779C24.1842 32.7446 24.1842 32.8778 24.1193 32.9462C24.1193 33.1478 24.0527 33.3477 24.0527 33.4827C23.9878 33.8859 23.858 34.2208 23.7265 34.5557C23.595 35.0256 23.4652 35.3621 23.2688 35.697C23.0724 36.0319 22.8777 36.3685 22.5498 36.6368C22.2885 36.905 21.8957 37.1733 21.5046 37.2399C21.3731 37.3082 21.3082 37.3082 21.1767 37.3082C21.0469 37.3082 20.982 37.3082 20.8505 37.3082C20.6541 37.3082 20.4577 37.2399 20.2613 37.1733C20.1964 37.1066 20.0666 37.1066 20 37.0383C19.9351 37.0383 19.9351 36.9716 19.8702 36.9716L19.8036 36.905L19.7387 36.8384C19.5423 36.7034 19.4774 36.5018 19.3459 36.3002C19.1512 35.8986 19.0846 35.4954 19.0846 35.1605C19.0197 34.3541 19.0846 33.616 19.2161 32.8778C19.347 32.1397 19.4779 31.4016 19.6089 30.6635C19.6738 30.3286 19.7387 29.9254 19.8036 29.5905C19.8036 29.3889 19.8702 29.2539 19.8702 29.0523C19.8702 28.8524 19.9351 28.7174 19.9351 28.5158C19.9351 28.3825 20.0666 28.2476 20.1964 28.2476C20.3279 28.2476 20.4577 28.3825 20.4577 28.5158Z" fill="#202020"/>
<path d="M33.6645 23.684C33.3366 24.8253 31.5724 25.2952 30.2642 24.7587C29.219 24.2888 29.0875 23.0142 29.0226 22.4094C29.0226 22.2744 28.8911 22.1411 28.7612 22.2078C28.7612 22.2078 28.7612 22.2078 28.6947 22.2078C29.0875 22.0734 29.5452 21.9395 30.0678 21.8063C31.0481 21.6046 32.0301 21.4697 33.0104 21.6046C33.533 22.2744 33.7943 23.0142 33.6645 23.684Z" fill="#202020"/>
<path d="M28.6963 22.2077C28.3685 22.2744 27.5845 22.5443 27.5845 22.5443C27.5845 22.5443 27.8458 21.6712 28.6947 21.1347C31.5058 19.3903 33.9258 21.8728 33.533 23.2824C33.2717 24.2222 31.8337 24.6237 30.7868 24.1538C29.938 23.7523 29.8065 22.7442 29.8065 22.2744C29.8065 22.1411 29.741 22.0745 29.6101 22.0745C29.4153 22.0745 29.0226 22.1411 28.6947 22.2077H28.6963Z" fill="#CEC9C5"/>
<path d="M33.4681 23.0143C33.2068 21.6047 31.0498 19.9268 28.6298 21.5363C28.3035 21.7379 28.0422 22.0745 27.8458 22.3428C27.6494 22.4094 27.5196 22.4094 27.5196 22.4094C27.5196 22.4094 27.7809 21.538 28.6298 20.9998C31.376 19.2554 33.7943 21.6047 33.4681 23.0143Z" fill="white"/>
<path d="M19.6088 16.1679C19.6088 16.1679 19.7386 9.72647 24.8383 9.99472C25.4275 9.99472 28.3684 10.4629 29.6101 12.7456C29.8065 13.0804 29.8065 13.6187 29.2838 13.6187C29.2838 13.6187 30.3291 14.8933 30.1343 16.3029C29.9379 17.7107 29.1524 17.1076 29.1524 17.1076C29.1524 17.1076 29.2838 19.1203 27.7809 18.9871L19.6088 16.1679Z" fill="#CEC9C5"/>
<path fill-rule="evenodd" clip-rule="evenodd" d="M27.7144 18.9204C27.6494 18.9204 27.6494 18.9204 27.5845 18.9204L19.4774 16.1012C19.4774 16.1012 19.4774 16.1012 19.4774 16.0346C19.4774 16.0346 19.479 15.9628 19.4873 15.8364L27.5845 18.7854C27.9773 18.7854 28.2386 18.7188 28.4334 18.4505C28.9576 17.9123 28.8911 16.906 28.8911 16.906C28.8911 16.906 28.8911 16.906 28.8911 16.8393C28.8911 16.8393 28.8911 16.8393 28.9576 16.8393C28.9576 16.8393 29.219 17.0409 29.4803 16.906C29.6767 16.8393 29.8065 16.5044 29.8714 16.0346C30.0678 14.625 29.0226 13.417 29.0226 13.3504C29.0226 13.3504 29.0226 13.3504 29.0226 13.282C29.0226 13.2154 29.0226 13.282 29.0875 13.282C29.2839 13.282 29.4148 13.2154 29.4803 13.0821C29.6101 12.8805 29.5452 12.6789 29.4153 12.4773C29.1274 11.9203 28.733 11.4726 28.2919 11.1121C28.8045 11.5 29.2705 11.9903 29.6101 12.6123C29.7416 12.8122 29.8065 13.0804 29.6767 13.282C29.6101 13.3504 29.5452 13.4836 29.3488 13.4836C29.5452 13.7519 30.3291 14.8932 30.1327 16.1678C30.0678 16.7043 29.938 16.9743 29.6767 17.1076C29.4803 17.1742 29.219 17.1076 29.1524 17.0409C29.1524 17.3092 29.1524 18.1139 28.6947 18.5838C28.3035 18.7854 28.0422 18.9204 27.7144 18.9204ZM21.438 10.9327C22.2885 10.128 23.4652 9.72474 24.7734 9.79309C25.4708 9.84093 27.027 10.1604 28.2919 11.1121C27.0286 10.0835 25.3692 9.776 24.6419 9.72645C23.3354 9.65811 22.2236 10.0613 21.3731 10.8661C19.6088 12.5439 19.4774 15.4981 19.4774 15.833L19.4873 15.8364C19.5356 15.1 19.8219 12.479 21.438 10.9327Z" fill="#262B5F"/>
<path d="M29.0225 16.9726C28.9576 16.9726 28.9576 16.906 28.9576 16.906C28.9576 16.906 29.0875 18.9187 27.5845 18.7855L27.3881 18.7188C28.6297 18.114 28.6963 16.3695 28.6963 16.3695C28.6963 16.3695 28.8261 16.7044 29.0225 16.9726Z" fill="white"/>
<path d="M29.9379 16.1679C29.873 16.5045 29.938 16.9744 29.3488 17.1076C30.1343 15.4964 28.172 13.2155 28.172 13.2155C28.6963 13.2155 29.4153 13.6853 29.2189 13.3504C27.9756 11.0011 25.0347 10.5979 24.4455 10.5979C21.6344 10.4646 20.3278 12.3424 19.7386 14.0202C20.1964 12.1425 21.5046 9.7265 24.6419 9.85977C25.2311 9.85977 28.172 10.3296 29.4153 12.6123C29.6101 12.9472 29.6101 13.4837 29.0875 13.4837C29.0875 13.4837 30.1343 14.7583 29.9379 16.1679Z" fill="white"/>
<path fill-rule="evenodd" clip-rule="evenodd" d="M27.7143 19.1203C27.6494 19.1203 27.6494 19.1203 27.5845 19.1203H27.5179L19.3475 16.2345C19.216 16.1679 19.1511 16.1012 19.1511 15.9662C19.1511 15.833 19.216 12.6106 21.1767 10.7328C22.0921 9.92637 23.2688 9.52485 24.7068 9.59149C24.7734 9.59149 28.237 9.7931 29.6766 12.4773C29.8065 12.6789 29.8714 13.0804 29.7416 13.3487C29.6761 13.4159 29.6106 13.4831 29.5452 13.5503C29.8714 14.0202 30.3957 15.0265 30.1993 16.1012C30.1343 16.7044 29.9379 17.041 29.6101 17.1742C29.4802 17.2426 29.3488 17.2426 29.2189 17.2426C29.2189 17.6441 29.0875 18.2489 28.6947 18.6504C28.4334 18.987 28.1071 19.1203 27.7143 19.1203ZM27.6494 18.5838C27.9756 18.5838 28.172 18.5172 28.3684 18.3156C28.7612 17.9123 28.7612 17.1742 28.7612 16.906C28.7612 16.8393 28.8261 16.7044 28.8911 16.6377C28.9576 16.5711 29.0875 16.5711 29.154 16.6377C29.154 16.6377 29.3488 16.7727 29.4802 16.7044C29.6117 16.6377 29.7416 16.3695 29.8065 16.0346C30.0029 14.7583 29.0225 13.5503 29.0225 13.5503C28.9576 13.4837 28.9576 13.3504 29.0225 13.282C29.0875 13.2154 29.154 13.1488 29.2189 13.1488C29.3488 13.1488 29.4153 13.1488 29.4153 13.0804C29.4802 13.0138 29.4153 12.8122 29.3488 12.6789C28.2386 10.6645 25.6888 10.0614 24.7734 10.0614C23.5318 9.99472 22.42 10.3962 21.636 11.1343C20.1314 12.6106 19.8701 15.1615 19.8052 15.833L27.6494 18.5838Z" fill="#202020"/>
<path d="M13.4639 27.3762C12.7449 28.7858 11.1754 27.5779 11.1754 27.5779C11.1754 27.5779 11.3069 28.6509 9.99871 28.046C8.69051 27.4429 8.1679 25.9 8.1679 25.9C7.84168 26.3682 7.44889 26.0999 7.25249 25.765C5.94596 23.4841 7.12267 20.6649 7.38398 20.1284C9.80232 15.4964 15.2282 18.7188 15.2282 18.7188L13.4639 27.3762Z" fill="#CEC9C5"/>
<path fill-rule="evenodd" clip-rule="evenodd" d="M10.3915 28.0461C10.1951 28.0461 9.99873 27.9794 9.73742 27.8461C8.62561 27.3763 8.03809 26.1 7.9066 25.7651C7.77678 25.9667 7.6453 25.9667 7.51381 25.9667C7.2525 25.9667 7.05777 25.7651 6.9912 25.5635C5.81448 23.4158 6.72989 20.7316 7.12268 19.8585C7.77678 18.6505 8.69053 17.8458 9.80233 17.5109C12.2207 16.7728 15.0318 18.4506 15.0318 18.4506C15.0318 18.4506 15.0318 18.4506 15.0318 18.5172C14.7705 18.3823 12.1558 16.9744 9.8689 17.5775C8.7571 17.9141 7.84169 18.6522 7.18759 19.8602C6.72989 20.7316 5.81448 23.3491 7.05777 25.4302C7.18759 25.6301 7.31908 25.7651 7.51381 25.7651C7.71021 25.8984 7.77678 25.8317 7.9066 25.6984C7.97207 25.6984 7.97207 25.6984 7.9066 25.6984C7.97151 25.7651 8.49579 27.3079 9.73742 27.8461C10.1901 28.0443 10.4498 28.0461 10.6462 27.9179C10.6162 28.0461 10.503 28.0461 10.3915 28.0461ZM15.0318 18.5172L13.1361 27.108C13.0579 27.2413 12.9696 27.3643 12.8714 27.4668C12.9663 27.3729 13.0512 27.2533 13.1361 27.108L15.0335 18.5172C15.0324 18.5172 15.0318 18.5172 15.0318 18.5172ZM12.3522 27.7778C11.763 27.9128 11.044 27.5096 10.8492 27.3763C10.8492 27.3831 10.8487 27.39 10.8476 27.3968C10.8492 27.3831 10.8492 27.3763 10.8492 27.3763C10.8492 27.3763 10.8492 27.3763 10.8492 27.3079C10.8492 27.3079 10.8492 27.3079 10.9141 27.3079C10.9141 27.3079 11.6981 27.9128 12.4171 27.7112C12.6035 27.6736 12.7466 27.5916 12.8714 27.4668C12.7216 27.624 12.5486 27.7385 12.3522 27.7778ZM10.6528 27.8461C10.6528 27.8735 10.6506 27.8974 10.6462 27.9179C10.6484 27.9156 10.6506 27.9139 10.6528 27.9128C10.8226 27.7966 10.8442 27.4805 10.8476 27.3968C10.8426 27.5301 10.776 27.718 10.6528 27.8461Z" fill="#262B5F"/>
<path d="M15.0984 18.5838L14.9669 18.9204C13.5289 18.2489 9.60594 16.906 7.6453 20.5983C7.38399 21.1348 6.27219 23.684 7.31908 25.9C7.1876 25.8317 7.05611 25.6984 6.9912 25.5634C5.68466 23.2825 6.86138 20.4633 7.12269 19.9268C9.67251 15.2965 15.0984 18.5838 15.0984 18.5838Z" fill="white"/>
<path d="M15.0984 20.7315C16.6013 22.0062 15.8174 24.4221 14.0515 25.3618C12.3521 26.3682 9.8689 26.2349 8.822 24.2888C7.84168 22.5444 8.3643 20.1284 10.1951 19.2553C11.8295 18.5838 13.9217 19.7252 15.0984 20.7315Z" fill="#EF787A"/>
<path fill-rule="evenodd" clip-rule="evenodd" d="M11.8296 26.0999C10.6528 26.0999 9.47612 25.5634 8.82202 24.4221C8.29941 23.4841 8.16792 22.3427 8.4958 21.3364C8.75711 20.3966 9.40955 19.7251 10.1951 19.3219C11.7613 18.5855 13.7819 19.5868 15.0901 20.7247C14.1097 19.9216 12.6751 19.1203 11.3718 19.1203C10.9791 19.1203 10.5879 19.1886 10.26 19.3903C9.47612 19.7918 8.88693 20.4633 8.62563 21.3364C8.29941 22.3427 8.42923 23.4157 8.95351 24.3554C9.99874 26.2349 12.4171 26.3682 14.1181 25.3618C15.0984 24.7587 15.8174 23.7523 15.8823 22.6776C15.8856 22.6537 15.8884 22.6292 15.8906 22.6041C15.8884 22.6508 15.8856 22.6975 15.8823 22.7442C15.8174 23.8189 15.0984 24.8919 14.0515 25.4968C13.3974 25.8317 12.6135 26.0999 11.8296 26.0999ZM15.0984 20.7315C15.1062 20.7383 15.1139 20.7457 15.1217 20.7537C15.1139 20.7457 15.1062 20.7383 15.0984 20.7315C15.0951 20.7292 15.0923 20.727 15.0901 20.7247C15.0923 20.727 15.0951 20.7292 15.0984 20.7315ZM15.1217 20.7537C15.3025 20.9223 15.4518 21.1051 15.5694 21.3022C15.4579 21.1177 15.3098 20.9331 15.1217 20.7537ZM15.5694 21.3022C15.8002 21.6849 15.9073 22.1189 15.8906 22.6041C15.9223 22.2282 15.8557 21.7669 15.5694 21.3022Z" fill="#262B5F"/>
<path d="M15.4895 24.0205C15.1633 24.557 14.7056 25.0935 14.1181 25.4284C12.4171 26.4365 9.93381 26.3015 8.88691 24.3554C7.90659 22.6109 8.42921 20.195 10.26 19.3219C10.5879 19.1886 10.8492 19.1203 11.2403 19.0536C12.6135 18.987 14.183 19.8584 15.1633 20.6648C16.1436 21.6046 16.0787 22.9458 15.4895 24.0205Z" fill="#EF787A"/>
<path fill-rule="evenodd" clip-rule="evenodd" d="M11.8296 26.0999C10.6528 26.0999 9.47612 25.5634 8.82202 24.422C8.29941 23.484 8.16792 22.3427 8.4958 21.3363C8.75711 20.3966 9.40955 19.7251 10.1951 19.3219C10.4564 19.1886 10.7827 19.122 11.1755 19.0536C12.5486 18.987 14.1164 19.8601 15.1633 20.7315C16.0787 21.5362 16.2085 22.8125 15.5561 24.0205C15.2282 24.6237 14.7056 25.0935 14.1181 25.4301C13.3991 25.8316 12.6135 26.0999 11.8296 26.0999ZM11.3718 19.1203C11.3064 19.1203 11.2409 19.1203 11.1755 19.1203C10.8492 19.1203 10.5214 19.2552 10.26 19.3902C9.47612 19.7917 8.88693 20.4632 8.62563 21.3363C8.29941 22.3427 8.43089 23.4157 8.95351 24.3554C9.99874 26.2349 12.4171 26.3681 14.1181 25.3618C14.7062 25.0269 15.1639 24.5576 15.4912 23.9539C16.1436 22.7459 16.0138 21.5379 15.1633 20.7315C14.183 19.9934 12.6784 19.1203 11.3718 19.1203Z" fill="#262B5F"/>
<path fill-rule="evenodd" clip-rule="evenodd" d="M11.8295 26.3016C10.5863 26.3016 9.34463 25.7651 8.69219 24.4904C8.16791 23.4824 8.03809 22.3427 8.36431 21.268C8.69219 20.3283 9.27972 19.5236 10.1302 19.1203C11.763 18.3156 13.9217 19.3903 15.2948 20.5299C15.9472 21.0664 16.2751 21.8729 16.1436 22.6776C16.0138 23.819 15.2948 24.9603 14.183 25.5634C13.464 26.0333 12.6135 26.3016 11.8295 26.3016ZM11.3718 19.322C10.979 19.322 10.6528 19.3903 10.3266 19.5236C9.60594 19.8602 9.01841 20.5299 8.7571 21.3364C8.4958 22.2744 8.56071 23.2825 9.01841 24.1539C9.99873 25.9667 12.2872 26.0333 13.9217 25.0936C14.8371 24.5571 15.5561 23.5507 15.621 22.611C15.6859 22.1411 15.5561 21.403 14.902 20.8665C13.9866 20.1284 12.6135 19.322 11.3718 19.322Z" fill="#202020"/>
<path d="M22.42 12.3423C24.0544 11.2026 26.3429 12.0074 27.3232 13.7519C28.3685 15.6313 27.1917 17.8457 25.4924 18.852C23.7265 19.7917 21.3731 19.3219 21.0469 17.3092C20.7856 15.698 20.982 13.282 22.42 12.3423Z" fill="#EF787A"/>
<path fill-rule="evenodd" clip-rule="evenodd" d="M23.5967 19.3903C23.139 19.3903 22.6164 19.3219 22.2236 19.0537C21.5046 18.7188 21.1118 18.1139 20.9819 17.3092C20.7206 15.5647 20.9154 13.2154 22.3534 12.2757C23.0741 11.7392 23.9878 11.6042 24.9032 11.8058C25.8835 12.0741 26.7989 12.7455 27.3232 13.6853C28.3685 15.6314 27.2566 17.8457 25.4924 18.8521C24.9032 19.1887 24.2508 19.3903 23.5967 19.3903ZM21.1118 17.3092C21.2433 18.2489 21.8308 18.7188 22.2885 18.987C23.2039 19.4569 24.4472 19.3903 25.4275 18.7854C27.1268 17.7791 28.3035 15.6314 27.2566 13.7519C26.734 12.8122 25.8852 12.209 24.9032 11.9408C24.0544 11.7392 23.139 11.8725 22.42 12.3423C21.0469 13.282 20.8505 15.6314 21.1118 17.3092Z" fill="#262B5F"/>
<path d="M25.4924 18.8521C24.8383 19.2553 24.1193 19.3903 23.4003 19.322C22.2885 19.2553 21.2433 18.5838 21.0469 17.3092C20.8505 15.8996 20.9154 13.9536 21.8974 12.8122C22.0272 12.6106 22.2236 12.4773 22.42 12.3423C24.0544 11.2027 26.3412 11.9408 27.3232 13.7519C28.3685 15.6314 27.1917 17.8457 25.4924 18.8521Z" fill="#EF787A"/>
<path fill-rule="evenodd" clip-rule="evenodd" d="M23.5967 19.3903C23.5318 19.3903 23.4003 19.3903 23.3354 19.3903C22.0272 19.3219 21.1118 18.5172 20.9819 17.3758C20.7856 15.8996 20.8505 13.9535 21.8308 12.8122C21.9623 12.6123 22.1587 12.4773 22.3534 12.344C23.0724 11.8075 23.9861 11.6726 24.9016 11.8725C24.6402 11.8725 24.3806 11.8058 24.1193 11.8058C23.5318 11.8058 22.9426 12.0074 22.42 12.3423C22.2236 12.4773 22.0272 12.6106 21.8974 12.8122C20.9819 13.9535 20.8505 15.8996 21.0469 17.3092C21.2433 18.4506 22.0921 19.1887 23.3354 19.2553C24.0544 19.3219 24.7734 19.1203 25.4275 18.7854C26.2763 18.3156 26.9953 17.5108 27.3881 16.5711C27.6494 15.8996 27.8458 14.8266 27.2566 13.6853C27.1019 13.4051 26.9171 13.1556 26.7091 12.9369C26.9471 13.1778 27.1551 13.4512 27.3232 13.7519C27.8458 14.625 27.8458 15.6997 27.453 16.7061C27.0603 17.6458 26.3412 18.4506 25.4924 18.9204C24.9032 19.1887 24.2508 19.3903 23.5967 19.3903ZM24.9032 11.8742C25.5706 12.0553 26.2064 12.4243 26.7091 12.9369C26.2181 12.4158 25.5923 12.0621 24.9032 11.8725C24.9032 11.8725 24.9027 11.8725 24.9016 11.8725C24.9027 11.8725 24.9032 11.873 24.9032 11.8742Z" fill="#262B5F"/>
<path fill-rule="evenodd" clip-rule="evenodd" d="M23.5967 19.5902C23.0741 19.5902 22.5498 19.4569 22.1587 19.2553C21.3731 18.8521 20.9154 18.1823 20.7855 17.3758C20.5242 15.5647 20.7206 13.1488 22.2236 12.1407C23.0075 11.6042 23.9895 11.4026 24.9032 11.6726C25.9501 11.9408 26.8655 12.6789 27.453 13.6186C28.5648 15.698 27.3881 18.0473 25.5573 19.0537C24.9698 19.3903 24.3157 19.5902 23.5967 19.5902ZM21.3082 17.3092C21.4396 18.1806 21.9623 18.5838 22.42 18.8521C23.2688 19.2553 24.4455 19.1887 25.3609 18.6504C26.9953 17.7124 28.1071 15.6314 27.1268 13.8869C26.6691 13.0138 25.8186 12.4107 24.9032 12.1424C24.0544 11.9408 23.2699 12.0746 22.5498 12.5439C21.2433 13.417 21.0469 15.6314 21.3082 17.3092Z" fill="#202020"/>
<path fill-rule="evenodd" clip-rule="evenodd" d="M10.3915 28.2476C10.1951 28.2476 9.93381 28.181 9.6725 28.046C8.69052 27.5779 8.10299 26.6381 7.84169 26.0999C7.7102 26.1683 7.64529 26.1683 7.58038 26.1683C7.2525 26.1683 6.99119 25.8983 6.86137 25.6301C5.35677 22.9459 6.99119 19.7918 6.99119 19.7252C7.64529 18.4505 8.62561 17.6441 9.80232 17.3092C12.3521 16.5711 15.0984 18.1806 15.1633 18.2489C15.2282 18.3156 15.2948 18.3822 15.2948 18.5172L13.4639 27.2413V27.3079C13.2676 27.7111 12.9413 27.9794 12.5485 28.046C12.0259 28.181 11.5016 27.9794 11.1105 27.7778C11.0439 27.9127 10.979 28.046 10.8492 28.1144C10.7177 28.181 10.5862 28.2476 10.3915 28.2476ZM8.10299 25.6301C8.10299 25.6301 8.62561 27.108 9.80232 27.6445C10.1302 27.7778 10.3915 27.8461 10.5213 27.7111C10.6528 27.6445 10.6528 27.3762 10.6528 27.3762C10.6528 27.3079 10.7177 27.1746 10.7826 27.1063C10.8492 27.0396 10.979 27.0396 11.0439 27.1063C11.0439 27.1063 11.7646 27.6445 12.4171 27.5095C12.6784 27.4429 12.8098 27.3079 13.0062 27.0396L14.7705 18.7188C14.183 18.3822 11.8944 17.3092 9.93381 17.914C8.88747 18.2489 8.03753 18.987 7.38398 20.1284C6.92628 20.9331 6.07578 23.4841 7.18758 25.4968C7.2525 25.6318 7.38398 25.765 7.5138 25.765C7.58038 25.765 7.64529 25.6984 7.7102 25.6301C7.77677 25.4968 7.84168 25.4968 7.90659 25.4968C8.03808 25.4968 8.10299 25.5634 8.10299 25.6301Z" fill="#202020"/>
<path d="M17.059 16.2346C21.2433 13.8186 26.8655 16.1013 28.7613 19.5236C30.7868 23.2142 28.2386 26.6382 24.1193 29.0541C20.0016 31.4701 15.8174 31.8716 13.7902 28.2477C11.8295 24.7587 12.8748 18.6522 17.059 16.2363V16.2346Z" fill="#C9C6C0"/>
<path fill-rule="evenodd" clip-rule="evenodd" d="M24.1842 29.0541C26.3429 27.7778 27.9773 26.3016 28.8262 24.7587C29.8065 22.9459 29.8065 21.2014 28.8262 19.4569C26.8655 15.968 21.2433 13.7519 17.059 16.1679C15.2681 17.246 13.885 19.1033 13.2426 21.3979C13.885 19.1101 15.2681 17.3126 17.059 16.2362C18.2357 15.5648 19.5439 15.2282 20.9154 15.2282C21.8308 15.2282 22.8128 15.3631 23.6616 15.6314C25.8835 16.3695 27.7144 17.7791 28.6298 19.4569C29.6101 21.1348 29.6101 22.8792 28.6298 24.6237C27.7793 26.1683 26.1465 27.6445 23.9878 28.9191C21.8308 30.1937 19.7387 30.8652 18.0393 30.7986C16.1436 30.7319 14.6407 29.8589 13.7253 28.1144C12.8099 26.4382 12.6135 24.0906 13.1344 21.8114C12.5486 24.0906 12.8099 26.5049 13.7253 28.181C14.6407 29.9255 16.1436 30.7986 18.1059 30.8652C18.1703 30.8652 18.2352 30.8652 18.3006 30.8652C19.9351 30.8652 21.9623 30.2621 24.1842 29.0541ZM13.1361 21.8062C13.1694 21.6684 13.2049 21.5323 13.2426 21.3979C13.2049 21.5323 13.1694 21.6684 13.1361 21.8062C13.1361 21.8074 13.1355 21.8091 13.1344 21.8114C13.1355 21.8091 13.1361 21.8074 13.1361 21.8062Z" fill="#262B5F"/>
<path d="M29.2838 23.3491C29.4153 22.3428 29.2189 21.3364 28.6297 20.2617C26.734 16.8394 21.1118 14.5584 16.9275 16.9727C14.7705 18.249 13.4639 20.3967 12.9397 22.7443C13.3325 20.1284 14.7056 17.5775 17.059 16.2346C21.2432 13.8186 26.8655 16.1013 28.7612 19.5236C29.4802 20.7982 29.6101 22.1412 29.2838 23.3491Z" fill="white"/>
<path d="M25.0996 25.3618C25.6888 26.4365 24.9698 27.5778 23.6616 28.2476C22.42 28.9857 21.0468 29.054 20.5242 27.9793C19.935 26.9063 20.7855 25.9666 22.0272 25.2285C23.2688 24.4904 24.5121 24.2888 25.0996 25.3618Z" fill="white"/>
<path fill-rule="evenodd" clip-rule="evenodd" d="M18.3007 31.0668C18.2352 31.0668 18.1697 31.0668 18.1043 31.0668C16.0787 31.0002 14.5092 30.0604 13.5289 28.2476C12.5486 26.5031 12.3522 24.0872 12.8748 21.7379C13.464 19.1887 14.902 17.1076 16.9275 15.9662C21.1767 13.4837 26.9954 15.7663 28.956 19.3219C29.938 21.1347 29.938 22.9459 28.956 24.8253C28.1072 26.4365 26.4727 27.9127 24.2491 29.1873C22.0272 30.462 20 31.0668 18.3007 31.0668ZM17.1905 16.4361C15.2931 17.5108 13.9866 19.4569 13.3974 21.8729C12.8748 24.0872 13.0712 26.3682 13.9866 28.046C14.902 29.7238 16.2751 30.5303 18.1708 30.5969C19.8702 30.6636 21.8974 29.9938 23.9895 28.7858C26.1465 27.5778 27.7144 26.0999 28.5649 24.6237C29.4803 22.9458 29.4803 21.268 28.5649 19.6585C27.6495 18.0473 25.8852 16.6377 23.7265 15.9662C21.3731 15.1615 19.0197 15.3631 17.1905 16.4361Z" fill="#202020"/>
<path d="M25.6888 20.5983C25.8852 20.7315 25.9501 20.9332 26.015 21.1348C26.0799 21.3364 26.0799 21.538 26.0799 21.7379C26.0799 21.9395 26.015 22.1411 25.8852 22.3427C25.7537 22.5444 25.6222 22.6776 25.4275 22.8126C25.2311 22.947 25.0347 23.0136 24.8383 23.0125C24.6419 23.0125 24.3806 23.0125 24.1842 22.9459C23.7931 22.7443 23.5318 22.4094 23.4003 22.0745C23.4003 22.0061 23.4003 22.0061 23.4652 21.9395C23.5318 21.9395 23.5318 21.9395 23.5318 21.9395C23.7271 22.2083 23.9884 22.4094 24.3157 22.5426C24.577 22.611 24.9032 22.5426 25.1662 22.4094C25.4275 22.2744 25.5573 22.0061 25.6222 21.6713C25.6888 21.5363 25.6888 21.3347 25.6222 21.2014C25.6222 21.0664 25.5573 20.8648 25.4924 20.7315C25.4924 20.6649 25.4924 20.6649 25.5573 20.5966C25.6888 20.5983 25.6888 20.5983 25.6888 20.5983Z" fill="#202020"/>
<path d="M16.5364 25.8983C16.6013 26.0332 16.7328 26.1682 16.8626 26.2349C16.9941 26.3015 17.1239 26.4365 17.2554 26.4365C17.5167 26.5031 17.8429 26.5031 18.1042 26.3681C18.3672 26.2349 18.5619 26.0332 18.6285 25.6984C18.6934 25.4284 18.6934 25.0269 18.5619 24.7586C18.5619 24.6903 18.5619 24.6903 18.6285 24.6237H18.6934C18.9547 24.8919 19.0862 25.3618 19.0196 25.765C19.0196 25.9666 18.8898 26.1682 18.7583 26.3681C18.6285 26.5697 18.4321 26.7047 18.3006 26.7714C18.1708 26.973 17.9744 26.973 17.7131 26.973C17.5167 26.973 17.2554 26.9063 17.1239 26.838C16.9292 26.7714 16.7977 26.6364 16.6679 26.4348C16.5364 26.3015 16.4049 26.0999 16.4049 25.8983C16.4049 25.8316 16.4049 25.8316 16.4715 25.8316C16.4698 25.8316 16.5364 25.8316 16.5364 25.8983Z" fill="#202020"/>
<path d="M20.3928 22.476C20.4593 22.4094 20.5891 22.2761 20.7206 22.2761C21.5695 22.0745 22.7462 22.8126 23.4003 23.5507C23.9895 24.2222 24.577 25.4968 22.8128 26.5032C21.0469 27.5096 20.3278 26.3682 20.0665 25.4968C19.7387 24.5571 19.7387 23.0809 20.3928 22.476Z" fill="#202020"/>
<path d="M14.9669 19.1204C14.6407 17.9807 15.6859 13.9536 17.1905 14.6251C17.3852 14.6917 17.8429 15.0949 17.5816 15.6981C17.3203 16.2346 17.1239 16.8394 17.1905 16.7044C17.4518 16.1013 18.7584 14.2218 19.5439 14.9599C19.9351 15.2965 19.6738 16.0346 19.2161 16.4362" fill="#CEC9C5"/>
<path d="M14.8371 19.0537C14.7705 19.0537 14.8371 19.0537 14.8371 19.0537C14.5741 18.1139 15.0984 15.5647 16.0138 14.6916C16.34 14.4234 16.6662 14.2884 17.059 14.49C17.1905 14.5584 17.4518 14.6916 17.5167 14.9599C17.5816 15.1615 17.5816 15.3631 17.4518 15.5647C17.3852 15.7646 17.2554 15.9662 17.1888 16.1679C17.5167 15.6314 18.2357 14.7583 18.8233 14.625C19.0846 14.5566 19.281 14.625 19.4125 14.7583C19.5423 14.8932 19.6089 15.0265 19.6089 15.2281C19.6089 15.5647 19.4125 16.0346 19.0846 16.3028H19.0197V16.2345C19.281 15.9662 19.4774 15.5647 19.4774 15.2281C19.4774 15.0265 19.4119 14.8921 19.281 14.8249C19.1511 14.6916 18.9547 14.625 18.7584 14.6916C18.0393 14.8932 17.1888 16.1012 16.9941 16.5711C16.9941 16.5711 16.9941 16.6377 16.9275 16.6377C16.9275 16.6377 16.9275 16.6377 16.8626 16.6377C16.7977 16.5711 17.1239 15.8996 17.2554 15.5647C17.3203 15.3631 17.3852 15.1615 17.3203 15.0265C17.2554 14.7583 16.9941 14.625 16.9275 14.5566C16.6013 14.4234 16.2734 14.49 16.0121 14.7583C15.1633 15.6314 14.6407 18.1139 14.8371 19.0537C14.902 18.987 14.8371 19.0537 14.8371 19.0537Z" fill="#262B5F"/>
<path d="M17.7131 15.4964L18.0393 15.0948L18.7583 14.625L19.3475 14.5583L19.6738 14.8932L19.5439 15.698C19.4774 14.9599 18.8898 15.2965 18.8898 15.2965C18.1708 15.5647 17.7131 16.3695 17.5167 16.7727C17.4518 16.906 17.2554 16.9743 17.1239 16.9743C17.059 16.9743 16.9941 16.8393 16.9941 16.7727L17.059 16.5044L17.7131 15.4964Z" fill="white"/>
<path d="M15.1633 18.7855L14.8371 18.9871C14.5092 17.8457 15.5561 13.8186 17.059 14.49C17.1905 14.5567 17.3852 14.6917 17.4518 14.8933C16.1436 14.3568 15.1633 17.2426 15.1633 18.7855Z" fill="white"/>
<path d="M14.8371 19.2552C14.7056 19.2552 14.6407 19.1886 14.5741 19.0536C14.3128 18.1139 14.8371 15.4297 15.8823 14.49C16.34 14.0201 16.7977 14.0885 17.1239 14.2217C17.3203 14.2901 17.5816 14.49 17.7131 14.8266C17.7131 14.8932 17.778 15.0265 17.778 15.0948C18.1059 14.7582 18.497 14.49 18.8249 14.3567C19.1511 14.2895 19.4124 14.3561 19.6088 14.5566C19.8052 14.6916 19.8701 14.9598 19.8701 15.2281C19.8701 15.6313 19.6088 16.1012 19.2826 16.4361C19.1511 16.5044 19.0196 16.5044 18.9547 16.4361C18.8898 16.3028 18.8898 16.1678 18.9547 16.1012C19.216 15.8996 19.3475 15.5647 19.3475 15.2964C19.3475 15.1615 19.2809 15.0948 19.216 15.0265C19.1511 14.8932 19.0196 14.8932 18.8898 14.8932C18.2357 15.0265 17.4518 16.1678 17.2554 16.6377C17.1905 16.7727 17.1239 16.7727 17.059 16.7727C16.9941 16.7727 16.8626 16.7727 16.8626 16.6377C16.7977 16.5044 16.7977 16.4361 16.9292 16.1012C16.9941 15.8996 17.059 15.698 17.1905 15.4297C17.2554 15.2964 17.2554 15.1615 17.2554 15.0265C17.1905 14.8266 17.059 14.7582 16.9292 14.6916C16.7977 14.625 16.5364 14.5566 16.2102 14.8932C15.3597 15.698 14.8371 18.1139 15.0335 18.9187C15.0984 19.0536 14.9669 19.1886 14.8371 19.2552C14.902 19.2552 14.8371 19.2552 14.8371 19.2552Z" fill="#202020"/>
<path d="M21.3731 25.0269C21.7009 25.3618 21.8308 25.6983 21.5695 25.9666C21.3731 26.1682 21.1118 25.9666 20.7855 25.63C20.5242 25.2285 20.1963 24.422 20.5242 24.0871C20.9154 23.7523 21.1783 24.7586 21.3731 25.0269Z" fill="white"/>
<path d="M32.4878 28.5843C38.3048 26.3016 37.456 32.4764 37.456 32.4764C37.456 32.4764 40.332 34.7574 37.9786 36.1004C36.7369 36.7718 34.252 36.4352 33.6645 34.6908C33.4015 33.9527 33.4015 33.4828 33.3366 33.1462C32.7491 31.1335 31.5058 32.0066 29.4803 31.9382" fill="#CEC9C5"/>
<path d="M36.4091 36.302C35.9514 36.302 35.4937 36.2336 35.0376 36.032C34.252 35.7638 33.7294 35.2273 33.4681 34.5558C33.3366 34.0876 33.2717 33.6844 33.2068 33.4162C33.2068 33.2812 33.1402 33.1479 33.1402 33.0129C32.7491 31.6033 31.9635 31.67 30.8534 31.805C30.3957 31.8716 29.8731 31.8716 29.3488 31.8716C29.3488 31.8716 29.2839 31.8716 29.2839 31.805C29.2839 31.805 29.2839 31.7383 29.3488 31.7383C29.8731 31.7383 30.3957 31.7383 30.8534 31.67C31.9635 31.5367 32.814 31.4701 33.2068 32.9463C33.2717 33.0796 33.2717 33.2145 33.2717 33.3478C33.3366 33.6178 33.3366 34.0193 33.533 34.4892C33.7294 35.1606 34.3169 35.6305 35.0376 35.9654C35.9514 36.302 37.0632 36.302 37.7822 35.8987C38.3714 35.5639 38.6976 35.1606 38.6976 34.6908C38.7625 33.5494 37.3245 32.3415 37.2596 32.3415C37.2596 32.3415 37.2596 32.3415 37.2596 32.2748C37.2596 32.2748 37.5858 29.5906 36.2143 28.4493C35.3638 27.7778 34.0556 27.7112 32.2914 28.3826H32.2265V28.316C33.9907 27.6445 35.3638 27.6445 36.2143 28.3826C37.5858 29.524 37.3245 31.9399 37.2596 32.2082C37.456 32.3415 38.7625 33.4828 38.6976 34.6241C38.6327 35.1606 38.3714 35.5639 37.7173 35.8987C37.456 36.167 36.9333 36.302 36.4091 36.302Z" fill="#262B5F"/>
<path d="M38.4363 35.5638C38.8291 32.9463 36.7369 33.4161 36.7369 33.4161C36.7369 33.4161 38.1084 27.4429 32.6176 28.5842C32.4878 28.5842 32.4212 28.4492 32.4878 28.3826C38.3714 26.0999 37.456 32.2748 37.456 32.2748C37.456 32.2748 39.8743 34.1542 38.4363 35.5638Z" fill="white"/>
<path d="M29.3488 31.5367C29.6767 31.5367 30.0029 31.5367 30.2642 31.5367C30.5921 31.5367 30.9183 31.4701 31.2445 31.4701C31.4409 31.4701 31.5724 31.4701 31.7688 31.4701C31.9635 31.4701 32.095 31.4701 32.2914 31.5367C32.4878 31.6033 32.6842 31.67 32.814 31.805C32.9455 31.9399 33.0753 32.0732 33.1402 32.2748C33.2068 32.4081 33.2717 32.6097 33.3366 32.7447C33.3366 32.8113 33.4032 32.878 33.4032 33.0129C33.4032 33.0796 33.4681 33.2145 33.4681 33.2812C33.533 33.6161 33.5979 33.8843 33.6645 34.2209C33.6645 34.2875 33.7294 34.3542 33.7294 34.4225C33.7294 34.4892 33.7943 34.5558 33.7943 34.6224C33.7943 34.6908 33.8592 34.7574 33.9258 34.824C33.9907 34.8924 33.9907 34.959 34.0556 35.0257C34.1222 35.1606 34.252 35.2273 34.3835 35.3605C34.5133 35.4289 34.6448 35.5622 34.7763 35.6305C35.2989 35.8982 35.887 36.032 36.5405 36.032C36.8668 36.032 37.1297 35.9654 37.391 35.8987C37.5209 35.8315 37.6512 35.7643 37.7822 35.6971C37.9136 35.6305 38.0435 35.5622 38.11 35.4289L38.175 35.3605L38.2399 35.2939C38.3064 35.2273 38.3064 35.1606 38.3714 35.1606C38.4363 35.0257 38.5028 34.8907 38.5028 34.7574C38.5677 34.4892 38.5028 34.2209 38.3714 33.9527C38.2399 33.6827 38.0451 33.4145 37.8487 33.2128C37.7173 33.0796 37.6523 33.0129 37.5209 32.878C37.391 32.743 37.2595 32.6763 37.1946 32.5431C37.1297 32.4747 37.0632 32.4081 37.1297 32.2748C37.1297 32.1398 37.1297 31.9382 37.1946 31.805C37.1946 31.6033 37.1946 31.4684 37.1946 31.2685C37.1946 30.9319 37.1297 30.597 37.0632 30.2604C36.9982 29.9255 36.8668 29.6573 36.7369 29.3207C36.6054 29.0524 36.4107 28.7842 36.1477 28.5825C35.8864 28.3809 35.6251 28.2477 35.2989 28.181C35.234 28.181 35.1674 28.181 35.0376 28.1127C34.971 28.1127 34.971 28.1127 34.9061 28.1127H34.7763H34.6448C34.5799 28.1127 34.5799 28.1127 34.5133 28.1127H34.252C34.1871 28.1127 34.1222 28.1127 33.9907 28.1127H33.7294C33.533 28.1127 33.4032 28.181 33.2068 28.181C33.0753 28.2477 32.8789 28.2477 32.6842 28.3143C32.5527 28.3809 32.3563 28.3809 32.2265 28.4493C32.1599 28.4493 32.1599 28.4493 32.095 28.3826C32.095 28.3143 32.095 28.3143 32.1599 28.3143C32.2914 28.2477 32.4878 28.181 32.6176 28.1127C32.7491 28.0461 32.9455 27.9794 33.1402 27.9128C33.3366 27.8444 33.4681 27.8444 33.6645 27.7778L33.9258 27.7112C33.9907 27.7112 34.1222 27.7112 34.1871 27.6428H34.4484C34.5133 27.6428 34.6448 27.6428 34.7097 27.6428H34.8412C34.9061 27.6428 34.9061 27.6428 34.971 27.6428C35.0376 27.6428 35.1674 27.6428 35.2323 27.7112C35.6251 27.7778 35.953 27.9128 36.2792 28.181C36.6054 28.3809 36.8018 28.7175 36.9982 29.0524C37.1946 29.389 37.3245 29.7239 37.391 30.1271C37.4559 30.462 37.5209 30.8652 37.5209 31.2001C37.5209 31.4017 37.5209 31.535 37.5209 31.7366C37.5209 31.9382 37.5209 32.0732 37.4559 32.2731L37.391 32.0049C37.5209 32.1398 37.6523 32.2065 37.7822 32.3415C37.9136 32.4747 38.0435 32.6097 38.11 32.743C38.3064 33.0129 38.5677 33.2812 38.6976 33.6161C38.8291 33.951 38.9589 34.3542 38.894 34.7574C38.894 34.959 38.7625 35.1589 38.6976 35.2939C38.6321 35.3611 38.5666 35.4283 38.5012 35.4955C38.5012 35.5622 38.4363 35.5622 38.4363 35.6288L38.3064 35.6971C38.175 35.8304 38.0435 35.897 37.8487 36.032C37.7173 36.0987 37.5209 36.2336 37.391 36.2336C37.0632 36.3669 36.7369 36.4352 36.3441 36.4352C35.6917 36.4352 34.9727 36.3003 34.3835 35.9654C34.252 35.897 34.0573 35.7638 33.9258 35.6288C33.7949 35.4944 33.6639 35.3605 33.533 35.2273C33.4681 35.1589 33.4032 35.0923 33.4032 35.0257C33.3383 34.959 33.3383 34.8907 33.2717 34.7574C33.2068 34.6891 33.2068 34.5558 33.1419 34.4892C33.1419 34.4208 33.0753 34.3542 33.0753 34.2209C32.9455 33.8843 32.9455 33.5494 32.8806 33.2128C32.8806 33.1462 32.8806 33.0796 32.814 33.0129C32.814 32.9446 32.7491 32.878 32.7491 32.8113C32.6836 32.6769 32.6182 32.5425 32.5527 32.4081C32.4229 32.1398 32.2265 31.9382 31.9652 31.8716C31.7039 31.805 31.376 31.805 31.1147 31.805C30.7885 31.805 30.4606 31.8716 30.1344 31.8716C29.8065 31.8716 29.4803 31.9382 29.154 31.8716C29.0226 31.8716 28.8927 31.7366 28.8927 31.6033C29.1524 31.67 29.2189 31.5367 29.3488 31.5367Z" fill="#202020"/>
<path d="M35.8865 33.8177C36.2127 33.6161 36.4756 33.3478 36.6704 33.0796C36.8019 32.9463 36.8668 32.8113 36.9317 32.6764C36.9983 32.5431 37.0632 32.4081 37.1281 32.2082C37.1947 32.0732 37.3245 32.0066 37.456 32.0732C37.5858 32.1399 37.5858 32.2082 37.5858 32.3415C37.5858 32.4081 37.5858 32.4765 37.5858 32.4765V32.5431V32.6097C37.5858 32.6781 37.5209 32.7447 37.5209 32.7447C37.5209 32.8113 37.456 32.8113 37.456 32.878C37.3245 33.0796 37.1947 33.2146 37.0632 33.3478C36.9317 33.4828 36.737 33.5495 36.5406 33.6844C36.3442 33.7511 36.1478 33.8177 35.9514 33.8177C35.8865 33.886 35.8865 33.886 35.8865 33.8177C35.8865 33.8177 35.8215 33.8177 35.8865 33.8177Z" fill="#202020"/>
<path d="M23.858 27.5095C24.1466 27.5095 24.3806 27.2395 24.3806 26.9064C24.3806 26.5733 24.1466 26.3032 23.858 26.3032C23.5694 26.3032 23.3354 26.5733 23.3354 26.9064C23.3354 27.2395 23.5694 27.5095 23.858 27.5095Z" fill="#202020"/>
</svg>
