<svg width="24" height="24" viewBox="0 0 24 24" fill="none" xmlns="http://www.w3.org/2000/svg">
<path d="M22 12L22.3904 12.3123L22.6403 12L22.3904 11.6877L22 12ZM13 11.5C12.7239 11.5 12.5 11.7239 12.5 12C12.5 12.2761 12.7239 12.5 13 12.5V11.5ZM18.3904 17.3123L22.3904 12.3123L21.6096 11.6877L17.6096 16.6877L18.3904 17.3123ZM22.3904 11.6877L18.3904 6.68765L17.6096 7.31235L21.6096 12.3123L22.3904 11.6877ZM22 11.5H13V12.5H22V11.5Z" fill="#484848"/>
<path d="M14 15.8681V16.6115C14 18.2298 14 19.039 13.526 19.5985C13.0521 20.158 12.2539 20.291 10.6576 20.5571L8.98639 20.8356C5.7433 21.3761 4.12175 21.6464 3.06088 20.7477C2 19.849 2 18.2051 2 14.9172L2 9.08276C2 5.79493 2 4.15102 3.06088 3.25232C4.12175 2.35363 5.7433 2.62388 8.98639 3.1644L10.6576 3.44293C12.2539 3.70899 13.0521 3.84201 13.526 4.4015C14 4.961 14 5.77017 14 7.38851V7.93403" stroke="#484848"/>
</svg>
