<svg width="21" height="20" viewBox="0 0 21 20" fill="none" xmlns="http://www.w3.org/2000/svg">
<path d="M8.625 16.875C8.625 17.1222 8.55169 17.3639 8.41434 17.5695C8.27699 17.775 8.08176 17.9352 7.85335 18.0299C7.62495 18.1245 7.37361 18.1492 7.13114 18.101C6.88866 18.0527 6.66593 17.9337 6.49112 17.7589C6.3163 17.5841 6.19725 17.3613 6.14902 17.1189C6.10079 16.8764 6.12554 16.6251 6.22015 16.3966C6.31476 16.1682 6.47498 15.973 6.68054 15.8357C6.8861 15.6983 7.12777 15.625 7.375 15.625C7.70652 15.625 8.02446 15.7567 8.25888 15.9911C8.4933 16.2255 8.625 16.5435 8.625 16.875ZM15.5 15.625C15.2528 15.625 15.0111 15.6983 14.8055 15.8357C14.6 15.973 14.4398 16.1682 14.3451 16.3966C14.2505 16.6251 14.2258 16.8764 14.274 17.1189C14.3222 17.3613 14.4413 17.5841 14.6161 17.7589C14.7909 17.9337 15.0137 18.0527 15.2561 18.101C15.4986 18.1492 15.7499 18.1245 15.9784 18.0299C16.2068 17.9352 16.402 17.775 16.5393 17.5695C16.6767 17.3639 16.75 17.1222 16.75 16.875C16.75 16.5435 16.6183 16.2255 16.3839 15.9911C16.1495 15.7567 15.8315 15.625 15.5 15.625ZM19.2273 5.79219L17.2242 13.0016C17.1141 13.3954 16.8785 13.7425 16.5533 13.9904C16.228 14.2383 15.8308 14.3733 15.4219 14.375H7.7C7.28987 14.3748 6.89105 14.2405 6.56437 13.9925C6.2377 13.7446 6.00108 13.3965 5.89062 13.0016L3.15 3.125H1.75C1.58424 3.125 1.42527 3.05915 1.30806 2.94194C1.19085 2.82473 1.125 2.66576 1.125 2.5C1.125 2.33424 1.19085 2.17527 1.30806 2.05806C1.42527 1.94085 1.58424 1.875 1.75 1.875H3.625C3.76164 1.87497 3.89453 1.91973 4.00331 2.00241C4.1121 2.08509 4.19079 2.20115 4.22734 2.33281L4.96797 5H18.625C18.7214 4.99998 18.8164 5.02224 18.9027 5.06504C18.9891 5.10784 19.0643 5.17001 19.1226 5.24671C19.181 5.32341 19.2208 5.41255 19.2389 5.50718C19.2571 5.6018 19.2531 5.69935 19.2273 5.79219ZM17.8023 6.25H5.31563L7.09766 12.6672C7.13421 12.7989 7.2129 12.9149 7.32169 12.9976C7.43047 13.0803 7.56336 13.125 7.7 13.125H15.4219C15.5585 13.125 15.6914 13.0803 15.8002 12.9976C15.909 12.9149 15.9877 12.7989 16.0242 12.6672L17.8023 6.25Z" fill="#111111"/>
</svg>
