<svg width="24" height="24" viewBox="0 0 24 24" fill="none" xmlns="http://www.w3.org/2000/svg">
<path d="M11.0343 15.9656C11.1752 16.1078 11.2542 16.2998 11.2542 16.4999C11.2542 16.7001 11.1752 16.8921 11.0343 17.0343L8.03435 20.0343C7.89099 20.1729 7.69938 20.2504 7.49997 20.2504C7.30056 20.2504 7.10895 20.1729 6.9656 20.0343L3.9656 17.0343C3.846 16.8886 3.78488 16.7036 3.79413 16.5153C3.80338 16.327 3.88233 16.1489 4.01563 16.0156C4.14893 15.8823 4.32705 15.8034 4.51534 15.7941C4.70363 15.7849 4.88862 15.846 5.03435 15.9656L6.74997 17.6906V4.49995C6.74997 4.30103 6.82899 4.11027 6.96964 3.96962C7.11029 3.82896 7.30106 3.74995 7.49997 3.74995C7.69888 3.74995 7.88965 3.82896 8.0303 3.96962C8.17095 4.11027 8.24997 4.30103 8.24997 4.49995V17.6906L9.9656 15.9656C10.1078 15.8247 10.2998 15.7457 10.5 15.7457C10.7001 15.7457 10.8922 15.8247 11.0343 15.9656ZM20.0343 6.96557L17.0343 3.96557C16.8922 3.82474 16.7001 3.74573 16.5 3.74573C16.2998 3.74573 16.1078 3.82474 15.9656 3.96557L12.9656 6.96557C12.846 7.11129 12.7849 7.29629 12.7941 7.48458C12.8034 7.67287 12.8823 7.85099 13.0156 7.98429C13.1489 8.11759 13.327 8.19654 13.5153 8.20579C13.7036 8.21504 13.8886 8.15392 14.0343 8.03432L15.75 6.30932V19.4999C15.75 19.6989 15.829 19.8896 15.9696 20.0303C16.1103 20.1709 16.3011 20.2499 16.5 20.2499C16.6989 20.2499 16.8896 20.1709 17.0303 20.0303C17.171 19.8896 17.25 19.6989 17.25 19.4999V6.30932L18.9656 8.03432C19.109 8.17294 19.3006 8.25042 19.5 8.25042C19.6994 8.25042 19.891 8.17294 20.0343 8.03432C20.1752 7.89213 20.2542 7.70008 20.2542 7.49995C20.2542 7.29981 20.1752 7.10777 20.0343 6.96557Z" fill="#484848"/>
</svg>
