<svg width="25" height="24" viewBox="0 0 25 24" fill="none" xmlns="http://www.w3.org/2000/svg">
<path d="M12.5 0C9.31812 0 6.26375 1.26506 4.01562 3.51469C1.7652 5.76522 0.500644 8.81734 0.5 12C0.5 15.1813 1.76562 18.2357 4.01562 20.4853C6.26375 22.7349 9.31812 24 12.5 24C15.6819 24 18.7362 22.7349 20.9844 20.4853C23.2344 18.2357 24.5 15.1813 24.5 12C24.5 8.81869 23.2344 5.76431 20.9844 3.51469C18.7362 1.26506 15.6819 0 12.5 0Z" fill="url(#paint0_linear_109_1645)"/>
<path d="M5.93184 11.873C9.43059 10.349 11.7631 9.3443 12.9293 8.8588C16.2631 7.47261 16.955 7.23186 17.4068 7.2237C17.5062 7.22211 17.7275 7.24667 17.8718 7.36339C17.9918 7.46183 18.0256 7.59495 18.0425 7.68842C18.0575 7.7818 18.0781 7.99461 18.0612 8.16074C17.8812 10.0582 17.0993 14.6629 16.7018 16.7882C16.535 17.6874 16.2031 17.9889 15.8825 18.0184C15.185 18.0825 14.6562 17.5579 13.9812 17.1155C12.9256 16.4231 12.3293 15.9922 11.3037 15.3167C10.1187 14.5359 10.8875 14.1067 11.5625 13.4055C11.7387 13.2219 14.81 10.4291 14.8681 10.1758C14.8756 10.1441 14.8831 10.026 14.8118 9.96373C14.7425 9.9013 14.6393 9.92267 14.5643 9.93955C14.4575 9.96355 12.7718 11.0788 9.50184 13.2851C9.02372 13.614 8.59059 13.7743 8.20059 13.7659C7.77309 13.7567 6.94809 13.5236 6.33497 13.3245C5.58497 13.0802 4.98684 12.951 5.03934 12.536C5.06559 12.32 5.36372 12.099 5.93184 11.873Z" fill="white"/>
<defs>
<linearGradient id="paint0_linear_109_1645" x1="1200.5" y1="0" x2="1200.5" y2="2400" gradientUnits="userSpaceOnUse">
<stop stop-color="#2AABEE"/>
<stop offset="1" stop-color="#229ED9"/>
</linearGradient>
</defs>
</svg>
