<svg width="25" height="24" viewBox="0 0 25 24" fill="none" xmlns="http://www.w3.org/2000/svg">
<rect x="4.5" y="3" width="16" height="15" fill="white"/>
<path fill-rule="evenodd" clip-rule="evenodd" d="M18.1176 0.618345C14.4293 -0.206115 10.6045 -0.206115 6.91616 0.618345L6.51875 0.706268C5.48099 0.937602 4.52781 1.45241 3.7653 2.19339C3.0028 2.93436 2.46091 3.87242 2.19997 4.90313C1.26668 8.58734 1.26668 12.4461 2.19997 16.1303C2.44885 17.1133 2.9535 18.0129 3.66262 18.7376C4.37175 19.4624 5.2601 19.9866 6.2374 20.2569L6.78252 23.5112C6.79992 23.6145 6.84471 23.7113 6.91222 23.7915C6.97972 23.8716 7.06749 23.9322 7.16636 23.9669C7.26524 24.0016 7.37161 24.0092 7.47441 23.9888C7.57721 23.9685 7.67266 23.9209 7.75085 23.8511L10.9524 20.9872C13.3557 21.1323 15.7675 20.9401 18.1176 20.4163L18.5162 20.3284C19.5539 20.097 20.5071 19.5822 21.2696 18.8412C22.0321 18.1003 22.574 17.1622 22.8349 16.1315C23.7682 12.4473 23.7682 8.58852 22.8349 4.9043C22.5739 3.87345 22.0318 2.93528 21.2691 2.1943C20.5064 1.45331 19.5529 0.938581 18.515 0.70744L18.1176 0.618345ZM7.90559 4.80817C7.68771 4.77627 7.46548 4.82014 7.27606 4.93244H7.25965C6.82003 5.19035 6.42379 5.51508 6.08617 5.89725C5.80481 6.22198 5.65241 6.55022 5.61255 6.86675C5.58911 7.05432 5.60552 7.24423 5.66062 7.42359L5.68172 7.43532C5.99824 8.36496 6.4109 9.25943 6.91499 10.1011C7.56526 11.2832 8.36511 12.3766 9.29478 13.3543L9.32291 13.3942L9.36746 13.427L9.39442 13.4586L9.42725 13.4868C10.4084 14.4191 11.5044 15.2228 12.6886 15.8783C14.0426 16.6157 14.8644 16.9638 15.358 17.1092V17.1162C15.5021 17.1608 15.6334 17.1807 15.7659 17.1807C16.1865 17.1505 16.5846 16.9796 16.896 16.6954C17.277 16.3578 17.5994 15.9603 17.8503 15.5184V15.5102C18.0859 15.0647 18.0062 14.645 17.6662 14.3601C16.9839 13.7628 16.2454 13.2328 15.4611 12.7775C14.9359 12.4927 14.4025 12.665 14.1868 12.9534L13.7261 13.5348C13.4893 13.8232 13.0602 13.7834 13.0602 13.7834L13.0485 13.7904C9.84693 12.9733 8.99232 9.73187 8.99232 9.73187C8.99232 9.73187 8.95246 9.29108 9.24906 9.066L9.82583 8.60176C10.1025 8.37668 10.2948 7.84445 9.99816 7.31926C9.54398 6.53548 9.01516 5.79741 8.41906 5.11532C8.28867 4.95515 8.10606 4.846 7.90325 4.807M13.3146 3.39906C13.1592 3.39906 13.0101 3.46082 12.9001 3.57074C12.7902 3.68067 12.7285 3.82976 12.7285 3.98521C12.7285 4.14067 12.7902 4.28976 12.9001 4.39969C13.0101 4.50961 13.1592 4.57137 13.3146 4.57137C14.7976 4.57137 16.0285 5.05553 17.0027 5.984C17.5033 6.49161 17.8937 7.093 18.1492 7.75184C18.406 8.41185 18.5232 9.11641 18.4927 9.82214C18.4895 9.89911 18.5014 9.97597 18.5279 10.0483C18.5544 10.1207 18.5948 10.1871 18.647 10.2438C18.7523 10.3584 18.8988 10.4264 19.0542 10.4329C19.2097 10.4394 19.3614 10.3839 19.4759 10.2786C19.5905 10.1733 19.6585 10.0268 19.665 9.87137C19.7 9.00335 19.5559 8.13741 19.2418 7.32746C18.9262 6.5134 18.4457 5.77341 17.8304 5.15401L17.8186 5.14228C16.61 3.98756 15.0801 3.39906 13.3146 3.39906ZM13.2748 5.32633C13.1193 5.32633 12.9702 5.38809 12.8603 5.49802C12.7504 5.60794 12.6886 5.75703 12.6886 5.91249C12.6886 6.06795 12.7504 6.21704 12.8603 6.32696C12.9702 6.43689 13.1193 6.49864 13.2748 6.49864H13.2947C14.3638 6.57484 15.1422 6.93122 15.6874 7.51621C16.2466 8.11877 16.5361 8.86788 16.5139 9.794C16.5103 9.94946 16.5686 10.1 16.676 10.2124C16.7834 10.3249 16.9311 10.3901 17.0865 10.3936C17.242 10.3972 17.3925 10.3389 17.5049 10.2315C17.6174 10.1241 17.6826 9.97642 17.6862 9.82096C17.7143 8.60528 17.3227 7.55606 16.5467 6.71904V6.71669C15.753 5.8656 14.6639 5.41543 13.3533 5.32751L13.3334 5.32516L13.2748 5.32633ZM13.2525 7.28995C13.174 7.28303 13.095 7.29199 13.0201 7.31628C12.9452 7.34058 12.876 7.37973 12.8165 7.43138C12.7571 7.48303 12.7086 7.54612 12.6741 7.6169C12.6396 7.68769 12.6197 7.7647 12.6156 7.84334C12.6115 7.92198 12.6233 8.00064 12.6503 8.07462C12.6773 8.14861 12.7189 8.2164 12.7726 8.27395C12.8264 8.3315 12.8912 8.37762 12.9631 8.40957C13.0351 8.44153 13.1128 8.45865 13.1915 8.45992C13.6816 8.48571 13.9946 8.63342 14.1915 8.83154C14.3896 9.03083 14.5373 9.35087 14.5643 9.85144C14.5658 9.9301 14.583 10.0077 14.6151 10.0795C14.6472 10.1513 14.6934 10.216 14.751 10.2696C14.8086 10.3232 14.8764 10.3647 14.9503 10.3915C15.0243 10.4184 15.1029 10.43 15.1814 10.4259C15.26 10.4217 15.3369 10.4018 15.4076 10.3672C15.4783 10.3327 15.5413 10.2843 15.5929 10.2249C15.6445 10.1655 15.6836 10.0963 15.7079 10.0215C15.7322 9.94664 15.7411 9.86769 15.7343 9.78931C15.6968 9.08593 15.4764 8.4646 15.025 8.0074C14.5713 7.5502 13.9535 7.32747 13.2525 7.28995Z" fill="#7C529F"/>
</svg>
