<svg width="40" height="40" viewBox="0 0 40 40" fill="none" xmlns="http://www.w3.org/2000/svg">
<g clip-path="url(#clip0_617_2312)">
<g clip-path="url(#clip1_617_2312)">
<path d="M20 40C31.0457 40 40 31.0457 40 20C40 8.9543 31.0457 0 20 0C8.9543 0 0 8.9543 0 20C0 31.0457 8.9543 40 20 40Z" fill="#7D3DAF"/>
<path d="M31.0403 14.3288C30.6361 13.0995 29.9396 11.9865 29.0107 11.0854C28.0818 10.1844 26.9481 9.52214 25.707 9.15552C21.9904 8.43547 18.1702 8.43547 14.4537 9.15552C13.173 9.48648 11.9943 10.1298 11.0232 11.028C10.0521 11.9262 9.31892 13.0512 8.88921 14.3022C8.2049 17.4236 8.2049 20.6563 8.88921 23.7777C9.27981 24.9655 9.94191 26.0459 10.823 26.9331C11.704 27.8203 12.7797 28.49 13.9648 28.8889V31.4044C13.9636 31.5378 13.989 31.6701 14.0395 31.7936C14.09 31.9171 14.1646 32.0293 14.2589 32.1236C14.3533 32.2179 14.4654 32.2925 14.5889 32.343C14.7124 32.3935 14.8447 32.4189 14.9781 32.4177C15.1146 32.4196 15.2499 32.3929 15.3755 32.3393C15.501 32.2858 15.6139 32.2065 15.707 32.1066L18.267 29.44H19.9203C21.8085 29.44 23.6924 29.2614 25.547 28.9066C26.7973 28.5454 27.9406 27.8846 28.8777 26.9816C29.8148 26.0785 30.5175 24.9605 30.9248 23.7244C31.6389 20.6374 31.6783 17.4325 31.0403 14.3288ZM29.0314 23.2889C28.7161 24.1441 28.2106 24.9166 27.5531 25.5479C26.8956 26.1792 26.1032 26.653 25.2359 26.9333C23.2679 27.308 21.2649 27.466 19.2625 27.4044H19.1648L17.2803 29.44L15.2981 31.4666C15.2532 31.5111 15.1925 31.5361 15.1292 31.5361C15.066 31.5361 15.0053 31.5111 14.9603 31.4666C14.9193 31.4264 14.8941 31.3728 14.8892 31.3155V27.1377C14.8863 27.1062 14.8736 27.0764 14.8529 27.0525C14.8322 27.0285 14.8045 27.0117 14.7737 27.0044C13.9047 26.727 13.1109 26.2544 12.453 25.6226C11.795 24.9909 11.2905 24.2169 10.9781 23.36C10.3649 20.5366 10.3649 17.6145 10.9781 14.7911C11.2911 13.9354 11.7959 13.1629 12.4538 12.5327C13.1118 11.9025 13.9053 11.4314 14.7737 11.1555C18.2241 10.4977 21.7677 10.4977 25.2181 11.1555C26.0864 11.4314 26.88 11.9025 27.5379 12.5327C28.1959 13.1629 28.7007 13.9354 29.0137 14.7911C29.6313 17.614 29.6313 20.5371 29.0137 23.36L29.0314 23.2889ZM25.2359 23.5733C24.9471 24.2078 24.4606 24.7317 23.8492 25.0666C23.6553 25.1451 23.4563 25.2104 23.2537 25.2622C23.0225 25.1822 22.8003 25.1377 22.5959 25.0489C20.443 24.2377 18.5056 22.942 16.9337 21.2622C16.0692 20.2582 15.3427 19.1431 14.7737 17.9466C14.507 17.3777 14.267 16.7911 14.027 16.1688C13.9564 15.9031 13.9606 15.6231 14.039 15.3596C14.1174 15.0961 14.2671 14.8594 14.4714 14.6755C14.7909 14.2986 15.1881 13.9954 15.6359 13.7866C15.7937 13.7057 15.9752 13.6836 16.1479 13.7244C16.3205 13.7651 16.473 13.8659 16.5781 14.0088C17.1462 14.6329 17.6467 15.3152 18.0714 16.0444C18.2049 16.2543 18.2518 16.5079 18.202 16.7516C18.1523 16.9953 18.0099 17.2103 17.8048 17.3511L17.4937 17.5911C17.3982 17.6611 17.3167 17.7486 17.2537 17.8488C17.2054 17.9407 17.1802 18.0429 17.1802 18.1466C17.1802 18.2504 17.2054 18.3526 17.2537 18.4444C17.4801 19.1865 17.8642 19.871 18.3797 20.4509C18.8952 21.0308 19.5299 21.4925 20.2403 21.8044C20.4764 21.9365 20.7432 22.0039 21.0137 22C21.4759 21.9377 21.6359 21.4133 21.9648 21.1111C22.121 20.9893 22.3134 20.9231 22.5114 20.9231C22.7095 20.9231 22.9019 20.9893 23.0581 21.1111C23.4137 21.3333 23.7425 21.5733 24.0892 21.8133C24.4359 22.0533 24.747 22.2844 25.0581 22.5422C25.2133 22.6592 25.318 22.831 25.351 23.0226C25.3841 23.2141 25.3429 23.411 25.2359 23.5733ZM25.5914 17.8133C25.7257 18.2994 25.7886 18.8024 25.7781 19.3066C25.7836 19.3209 25.7836 19.3368 25.7781 19.3511C25.7793 19.3943 25.7719 19.4373 25.7565 19.4776C25.7411 19.518 25.7178 19.5549 25.6881 19.5863C25.6584 19.6176 25.6228 19.6428 25.5833 19.6604C25.5438 19.678 25.5013 19.6877 25.4581 19.6888C25.2359 19.6888 25.147 19.6888 25.1114 19.3066C25.0759 18.9244 25.0137 18.4977 25.0137 18.1066C24.8579 17.0775 24.3857 16.1224 23.6626 15.3737C22.9394 14.6251 22.0012 14.1201 20.9781 13.9288C20.6683 13.8626 20.3527 13.8269 20.0359 13.8222C19.8314 13.8222 19.5292 13.8222 19.5292 13.5377V13.4933C19.5315 13.4029 19.5691 13.317 19.6338 13.2539C19.6986 13.1908 19.7855 13.1555 19.8759 13.1555H20.0359C21.3549 13.1596 22.6313 13.6234 23.6453 14.4671C24.6593 15.3107 25.3475 16.4814 25.5914 17.7777V17.8133ZM23.2359 16.9777C22.9243 16.4433 22.4642 16.011 21.9114 15.7333C21.5729 15.5746 21.2139 15.4639 20.8448 15.4044L20.3114 15.3155C20.2343 15.3024 20.1652 15.2599 20.1188 15.1969C20.0724 15.1339 20.0522 15.0553 20.0625 14.9777C20.0715 14.8991 20.111 14.8271 20.1725 14.7772C20.234 14.7273 20.3126 14.7036 20.3914 14.7111C21.0295 14.7358 21.6544 14.8996 22.2225 15.1911C22.772 15.4652 23.2443 15.8722 23.5967 16.3752C23.949 16.8781 24.1703 17.461 24.2403 18.0711V18.6666C24.2492 18.7315 24.2492 18.7973 24.2403 18.8622C24.2248 18.909 24.198 18.9513 24.1624 18.9854C24.1268 19.0194 24.0833 19.0443 24.0359 19.0577C23.9581 19.0831 23.8734 19.0769 23.8002 19.0403C23.727 19.0037 23.6711 18.9397 23.6448 18.8622C23.627 18.7712 23.627 18.6776 23.6448 18.5866C23.6444 18.0247 23.5039 17.4717 23.2359 16.9777ZM22.4625 18.6044C22.3713 18.6022 22.2844 18.5649 22.2199 18.5004C22.1554 18.4358 22.1181 18.349 22.1159 18.2577C22.1337 18.1101 22.1337 17.9609 22.1159 17.8133C22.0549 17.52 21.8909 17.2583 21.6537 17.0755C21.5414 16.9934 21.4148 16.9331 21.2803 16.8977C21.1148 16.8406 20.9396 16.8165 20.7648 16.8266C20.7243 16.8182 20.686 16.8018 20.6519 16.7784C20.6179 16.755 20.5888 16.725 20.5665 16.6903C20.5441 16.6555 20.5289 16.6167 20.5218 16.576C20.5146 16.5353 20.5156 16.4936 20.5248 16.4533C20.5399 16.3724 20.5849 16.3002 20.6507 16.2508C20.7165 16.2014 20.7984 16.1785 20.8803 16.1866C21.1332 16.1878 21.3834 16.2389 21.6165 16.337C21.8495 16.4351 22.061 16.5783 22.2385 16.7584C22.4161 16.9385 22.5564 17.1518 22.6513 17.3862C22.7461 17.6207 22.7938 17.8715 22.7914 18.1244C22.8003 18.2131 22.8003 18.3024 22.7914 18.3911C22.7744 18.462 22.7308 18.5237 22.6696 18.5634C22.6084 18.6031 22.5343 18.6178 22.4625 18.6044Z" fill="white"/>
</g>
</g>
<defs>
<clipPath id="clip0_617_2312">
<rect width="40" height="40" fill="white"/>
</clipPath>
<clipPath id="clip1_617_2312">
<rect width="40" height="40" fill="white"/>
</clipPath>
</defs>
</svg>
